<svg width="16" height="17" viewBox="0 0 16 17" fill="none" xmlns="http://www.w3.org/2000/svg">
<path d="M3.41 10.5198V12.4368C3.9956 13.1549 4.73383 13.7335 5.57104 14.1306C6.40825 14.5276 7.32341 14.7332 8.25 14.7323C10.412 14.7323 12.318 13.6343 13.44 11.9658V9.27878C13.056 11.8003 10.8785 13.7323 8.25 13.7323C6.073 13.7323 4.2055 12.4073 3.41 10.5198ZM12.515 5.42028V4.55928C12.5135 4.36938 12.5446 4.18064 12.607 4.00128C11.4415 2.86505 9.87767 2.23009 8.25 2.23228C6.79343 2.23011 5.38222 2.73879 4.262 3.66978L4.2645 3.70028L4.265 3.71378V5.06378C4.7574 4.48863 5.36863 4.02706 6.05659 3.71087C6.74454 3.39469 7.49287 3.23141 8.25 3.23228C10.007 3.23228 11.562 4.09528 12.515 5.42028Z" fill="#F8F8F8"/>
<path d="M12.25 8.48228C12.25 9.54314 11.8286 10.5606 11.0784 11.3107C10.3283 12.0609 9.31087 12.4823 8.25 12.4823C7.18913 12.4823 6.17172 12.0609 5.42157 11.3107C4.67143 10.5606 4.25 9.54314 4.25 8.48228C4.25 7.42141 4.67143 6.404 5.42157 5.65385C6.17172 4.90371 7.18913 4.48228 8.25 4.48228C9.31087 4.48228 10.3283 4.90371 11.0784 5.65385C11.8286 6.404 12.25 7.42141 12.25 8.48228ZM8.25 11.9823C8.70963 11.9823 9.16475 11.8917 9.58939 11.7159C10.014 11.54 10.3999 11.2822 10.7249 10.9572C11.0499 10.6321 11.3077 10.2463 11.4836 9.82167C11.6595 9.39703 11.75 8.94191 11.75 8.48228C11.75 8.02265 11.6595 7.56753 11.4836 7.14289C11.3077 6.71825 11.0499 6.33241 10.7249 6.00741C10.3999 5.6824 10.014 5.42459 9.58939 5.2487C9.16475 5.07281 8.70963 4.98228 8.25 4.98228C7.32174 4.98228 6.4315 5.35103 5.77513 6.00741C5.11875 6.66378 4.75 7.55402 4.75 8.48228C4.75 9.41054 5.11875 10.3008 5.77513 10.9572C6.4315 11.6135 7.32174 11.9823 8.25 11.9823ZM14.995 4.20228C14.995 3.75228 14.63 3.38728 14.18 3.38728C13.53 3.38728 13.01 3.91228 13.015 4.55728V7.33228C13.015 7.95878 13.378 8.51978 13.94 8.77378V13.0823C13.94 13.3423 14.15 13.5523 14.41 13.5523H14.525C14.785 13.5523 14.995 13.3423 14.995 13.0823V4.20228ZM3.41 3.38728C3.31983 3.38728 3.23335 3.4231 3.16958 3.48686C3.10582 3.55062 3.07 3.63711 3.07 3.72728V5.07228C3.07 5.17228 2.99 5.24728 2.895 5.24728C2.795 5.24728 2.72 5.16728 2.72 5.07228V3.74228C2.72 3.55728 2.575 3.39228 2.39 3.38728C2.195 3.38228 2.035 3.53728 2.035 3.72728V5.07228C2.035 5.17228 1.955 5.24728 1.86 5.24728C1.76 5.24728 1.685 5.16728 1.685 5.07228V3.74228C1.685 3.55728 1.54 3.39228 1.355 3.38728C1.16 3.38228 1 3.53728 1 3.72728V6.01728C1 6.46828 1.2185 6.87078 1.5545 7.12178C1.855 7.29128 1.855 8.06728 1.855 8.06728V13.0773C1.855 13.3373 2.065 13.5473 2.325 13.5473H2.44C2.7 13.5473 2.91 13.3373 2.91 13.0773V8.06728C2.91 8.06728 2.91 7.32178 3.2105 7.12178C3.3825 6.99353 3.5222 6.8269 3.61846 6.63515C3.71473 6.4434 3.7649 6.23183 3.765 6.01728V3.72728C3.75994 3.63617 3.72046 3.55038 3.65456 3.48726C3.58866 3.42414 3.50125 3.38841 3.41 3.38728Z" fill="#F8F8F8"/>
</svg>
