<svg width="44" height="40" viewBox="0 0 44 40" fill="none" xmlns="http://www.w3.org/2000/svg">
<g clip-path="url(#clip0_5_427)">
<path d="M11.0177 9.7495C10.8042 9.74891 10.5982 9.67061 10.4382 9.52921C10.2782 9.38782 10.1752 9.19301 10.1484 8.9812L9.64867 4.98354C9.6282 4.75691 9.69655 4.53118 9.83931 4.35398C9.98206 4.17678 10.1881 4.06195 10.4139 4.03373C10.6397 4.0055 10.8676 4.06608 11.0496 4.20269C11.2316 4.3393 11.3534 4.54126 11.3893 4.76596L11.889 8.76362C11.9033 8.87784 11.895 8.99376 11.8645 9.10476C11.8339 9.21576 11.7819 9.31966 11.7112 9.41053C11.6405 9.5014 11.5527 9.57746 11.4526 9.63437C11.3525 9.69128 11.2422 9.72792 11.128 9.74221C11.0914 9.74719 11.0546 9.74963 11.0177 9.7495ZM35.5345 23.3426C35.3145 23.3437 35.102 23.2621 34.9394 23.1138C34.7768 22.9655 34.6758 22.7615 34.6567 22.5423C34.6376 22.323 34.7016 22.1046 34.8361 21.9304C34.9705 21.7562 35.1656 21.6389 35.3825 21.6019C37.9071 21.1543 38.8836 19.3845 38.7316 17.8281C38.639 16.8911 38.0914 15.9459 37.0743 15.9459H37.0233C36.7956 15.9405 36.5789 15.8468 36.419 15.6847C36.2592 15.5225 36.1686 15.3045 36.1664 15.0768C36.1642 14.8491 36.2507 14.6295 36.4075 14.4643C36.5642 14.2991 36.7791 14.2014 37.0066 14.1917C38.8503 14.1532 40.2734 15.5805 40.4775 17.6574C40.7013 19.9414 39.298 22.6898 35.6886 23.329C35.6378 23.3381 35.5862 23.3427 35.5345 23.3426Z" fill="black"/>
<path d="M34.3061 32.2561C34.2689 32.2561 34.2317 32.254 34.1947 32.2499C34.0805 32.2353 33.9702 32.1984 33.8702 32.1413C33.7703 32.0841 33.6825 32.0078 33.6121 31.9168C33.5416 31.8257 33.4897 31.7216 33.4595 31.6105C33.4292 31.4994 33.4212 31.3834 33.4358 31.2692L33.7096 29.1059C33.7096 29.0892 33.7096 29.0736 33.7169 29.0569C33.8256 28.4564 34.0834 27.8928 34.4667 27.4179C34.8499 26.9429 35.3464 26.5719 35.9104 26.3387C41.0115 24.3191 42.6772 19.9477 42.0776 16.5112C41.5644 13.5889 39.5447 11.6494 36.9306 11.5713C36.8083 11.5677 36.6881 11.5385 36.5778 11.4856C36.4675 11.4327 36.3695 11.3573 36.29 11.2642C36.2106 11.1712 36.1515 11.0625 36.1166 10.9453C36.0817 10.828 36.0717 10.7047 36.0874 10.5834L36.8338 4.76179C36.8485 4.64757 36.8855 4.53736 36.9428 4.43745C37.0001 4.33755 37.0765 4.24991 37.1677 4.17953C37.2588 4.10915 37.363 4.05742 37.4741 4.02729C37.5853 3.99715 37.7013 3.98921 37.8155 4.0039C37.9297 4.0186 38.0399 4.05565 38.1398 4.11294C38.2398 4.17023 38.3274 4.24664 38.3978 4.3378C38.4681 4.42896 38.5199 4.53309 38.55 4.64424C38.5801 4.7554 38.5881 4.8714 38.5734 4.98562L37.9415 9.90982C40.9501 10.4043 43.2051 12.7852 43.8047 16.2082C44.5334 20.3454 42.5711 25.586 36.5569 27.9721C36.2716 28.0932 36.0208 28.2832 35.8269 28.525C35.633 28.7669 35.5022 29.053 35.4461 29.3578L35.1754 31.494C35.1476 31.7049 35.0441 31.8985 34.8842 32.0387C34.7242 32.1789 34.5188 32.2562 34.3061 32.2561Z" fill="black"/>
<path d="M24.111 9.7495C22.0211 9.75696 19.9333 9.61116 17.8647 9.31329C17.6397 9.27339 17.4391 9.14728 17.3056 8.96179C17.1721 8.77631 17.1163 8.54606 17.1499 8.32003C17.1835 8.09399 17.304 7.88998 17.4857 7.75138C17.6674 7.61279 17.896 7.55053 18.1229 7.57785C20.1057 7.8629 22.1068 8.00208 24.11 7.99427C32.3343 7.99427 36.8255 5.93298 36.8255 4.8711C36.8255 3.80923 32.3375 1.74793 24.11 1.74793C15.8825 1.74793 11.3956 3.80923 11.3956 4.8711C11.3956 5.17509 11.9796 5.94443 14.1908 6.6815C14.3002 6.71794 14.4013 6.77556 14.4884 6.85107C14.5755 6.92659 14.6469 7.01852 14.6985 7.12162C14.75 7.22472 14.7808 7.33697 14.789 7.45195C14.7972 7.56694 14.7826 7.68242 14.7462 7.79179C14.7098 7.90116 14.6522 8.00228 14.5766 8.08939C14.5011 8.17649 14.4092 8.24786 14.3061 8.29944C14.203 8.35101 14.0907 8.38177 13.9758 8.38997C13.8608 8.39816 13.7453 8.38363 13.6359 8.34719C10.9854 7.46334 9.64139 6.29423 9.64139 4.87214C9.64243 1.67402 16.9215 0 24.111 0C31.3006 0 38.5817 1.67402 38.5817 4.87527C38.5817 8.07652 31.3016 9.7495 24.111 9.7495ZM31.5858 32.9796C31.3564 32.9814 31.1355 32.8932 30.9704 32.7339C30.8053 32.5746 30.7092 32.3569 30.7028 32.1276C30.6964 31.8982 30.7802 31.6755 30.9361 31.5073C31.0921 31.339 31.3077 31.2386 31.5369 31.2275C39.0242 30.8028 42.2598 28.8727 42.2598 27.9815C42.2598 27.6401 41.6695 26.8572 39.4541 26.092C39.3453 26.0543 39.245 25.9956 39.1588 25.9192C39.0727 25.8427 39.0025 25.7501 38.9522 25.6465C38.9018 25.5429 38.8724 25.4304 38.8656 25.3155C38.8587 25.2005 38.8746 25.0853 38.9123 24.9765C38.9499 24.8677 39.0086 24.7673 39.0851 24.6812C39.1615 24.5951 39.2542 24.5249 39.3578 24.4745C39.4614 24.4242 39.5738 24.3948 39.6888 24.388C39.8037 24.3811 39.9189 24.397 40.0277 24.4346C42.6731 25.3487 44.014 26.5417 44.014 27.9815C44.014 31.1515 37.3449 32.6548 31.6337 32.9786L31.5858 32.9796Z" fill="black"/>
<path d="M24.7909 39.7319H19.3545C13.3861 39.7319 7.67172 38.8439 4.06862 37.3552C3.95844 37.3099 3.85866 37.2426 3.77542 37.1574C3.69217 37.0722 3.62722 36.9709 3.58453 36.8597C3.58453 36.8492 2.9599 35.321 1.19843 34.1477C1.01402 34.0151 0.888289 33.8161 0.847735 33.5926C0.807181 33.3691 0.85497 33.1385 0.981032 32.9496C1.10709 32.7606 1.30158 32.628 1.52352 32.5796C1.74546 32.5312 1.97751 32.5709 2.17078 32.6902C3.38261 33.4884 4.3734 34.5794 5.05138 35.8623C8.47021 37.1907 13.7775 37.9798 19.3545 37.9798H24.7909C30.3678 37.9798 35.6751 37.1907 39.0939 35.8623C39.7718 34.579 40.7626 33.4876 41.9745 32.6892C42.1678 32.5698 42.3999 32.5302 42.6218 32.5786C42.8437 32.6269 43.0382 32.7596 43.1643 32.9485C43.2903 33.1375 43.3381 33.368 43.2976 33.5915C43.257 33.815 43.1313 34.014 42.9469 34.1467C41.1875 35.3199 40.5649 36.8482 40.5597 36.8628C40.5159 36.9726 40.4506 37.0727 40.3676 37.157C40.2847 37.2414 40.1858 37.3084 40.0767 37.3542C36.4736 38.8439 30.7582 39.7319 24.7909 39.7319Z" fill="black"/>
<path d="M18.076 35.9591C16.2668 35.9658 14.459 35.8615 12.6625 35.6468C7.80809 35.0409 1.89281 31.569 0.497794 26.3294C-0.616137 22.1495 0.15945 17.9624 2.62363 14.8444C5.00765 11.8254 8.60138 10.2273 12.7521 10.3408C18.1104 10.4866 20.611 13.3443 21.625 15.036C23.1033 17.5012 23.3042 20.6025 22.1372 22.9366C22.0332 23.1446 21.8509 23.3028 21.6303 23.3764C21.4097 23.45 21.1688 23.433 20.9608 23.329C20.7528 23.2251 20.5945 23.0427 20.5209 22.8221C20.4473 22.6015 20.4644 22.3607 20.5683 22.1526C21.474 20.3412 21.2971 17.902 20.1207 15.9375C18.6892 13.5504 16.0553 12.1897 12.7042 12.095C9.12815 11.9992 6.03205 13.3599 4.00095 15.9313C1.8824 18.612 1.22341 22.237 2.19263 25.8775C3.34717 30.2115 8.53059 33.3638 12.8749 33.9072C18.1333 34.5652 23.7019 33.9135 23.7519 33.9072C23.9784 33.8884 24.2034 33.9581 24.3795 34.1018C24.5556 34.2455 24.6691 34.4519 24.6961 34.6776C24.7231 34.9033 24.6614 35.1307 24.5242 35.3118C24.3869 35.493 24.1847 35.6138 23.9601 35.6489C22.0059 35.8596 20.0416 35.9631 18.076 35.9591Z" fill="black"/>
<path d="M6.40163 28.1793C6.16896 28.179 5.94589 28.0865 5.78137 27.922C5.61684 27.7574 5.52429 27.5344 5.52402 27.3017C5.52424 25.3902 6.13083 23.528 7.25652 21.9831C8.3822 20.4382 9.96895 19.2902 11.7885 18.7043C13.608 18.1184 15.5664 18.1248 17.3821 18.7226C19.1977 19.3203 20.777 20.4786 21.8925 22.0308C22.0196 22.22 22.0681 22.4512 22.0278 22.6755C21.9875 22.8998 21.8615 23.0996 21.6765 23.2327C21.4915 23.3657 21.262 23.4216 21.0365 23.3885C20.8111 23.3554 20.6073 23.2359 20.4684 23.0552C19.5695 21.8044 18.297 20.8709 16.834 20.3892C15.3709 19.9074 13.7928 19.9021 12.3266 20.3742C10.8604 20.8462 9.5817 21.7712 8.67453 23.016C7.76736 24.2609 7.27847 25.7614 7.2782 27.3017C7.2782 27.5343 7.18588 27.7574 7.02152 27.9219C6.85716 28.0865 6.6342 28.179 6.40163 28.1793Z" fill="black"/>
<path d="M14.5562 30.8975C14.441 30.8975 14.327 30.8748 14.2205 30.8307C14.1141 30.7866 14.0174 30.7219 13.936 30.6404C13.8546 30.5589 13.7901 30.4621 13.7461 30.3557C13.7021 30.2492 13.6795 30.1351 13.6797 30.0199C13.6813 28.5261 14.2754 27.094 15.3317 26.0377C16.388 24.9815 17.8201 24.3874 19.3139 24.3857C20.1483 24.3836 20.9725 24.5686 21.726 24.927C21.9303 25.0303 22.0863 25.2093 22.1605 25.4259C22.2347 25.6424 22.2214 25.8795 22.1233 26.0863C22.0252 26.2932 21.8502 26.4536 21.6355 26.5332C21.4209 26.6128 21.1836 26.6054 20.9743 26.5126C20.4558 26.2654 19.8883 26.138 19.3139 26.1399C18.2851 26.141 17.2989 26.5501 16.5715 27.2775C15.8441 28.0049 15.4349 28.9912 15.4338 30.0199C15.434 30.1352 15.4114 30.2494 15.3673 30.3559C15.3233 30.4624 15.2586 30.5592 15.1771 30.6408C15.0956 30.7223 14.9988 30.7869 14.8922 30.831C14.7857 30.875 14.6715 30.8976 14.5562 30.8975ZM23.7363 35.6541C23.5089 35.6463 23.2934 35.5504 23.1353 35.3868C22.9772 35.2232 22.8889 35.0045 22.8889 34.777C22.8889 34.5495 22.9772 34.3308 23.1353 34.1672C23.2934 34.0036 23.5089 33.9078 23.7363 33.8999C24.3147 33.8999 24.8695 33.6701 25.2785 33.2611C25.6875 32.8521 25.9173 32.2973 25.9173 31.7189C25.9173 31.1405 25.6875 30.5857 25.2785 30.1767C24.8695 29.7677 24.3147 29.5379 23.7363 29.5379H21.3522C21.1249 29.5301 20.9094 29.4342 20.7513 29.2706C20.5932 29.107 20.5049 28.8883 20.5049 28.6608C20.5049 28.4333 20.5932 28.2146 20.7513 28.051C20.9094 27.8874 21.1249 27.7915 21.3522 27.7837H23.7363C24.7799 27.7837 25.7809 28.1983 26.5189 28.9363C27.2569 29.6743 27.6715 30.6752 27.6715 31.7189C27.6715 32.7626 27.2569 33.7635 26.5189 34.5015C25.7809 35.2395 24.7799 35.6541 23.7363 35.6541Z" fill="black"/>
</g>
<defs>
<clipPath id="clip0_5_427">
<rect width="44" height="39.7319" fill="white"/>
</clipPath>
</defs>
</svg>
