<svg width="15" height="14" viewBox="0 0 15 14" fill="none" xmlns="http://www.w3.org/2000/svg">
<g clip-path="url(#clip0_256_232)">
<path d="M1.63063 1.08308C1.39074 1.44898 1.33159 1.89844 1.42428 2.41749C1.53479 3.03648 1.86919 3.73402 2.35252 4.39078C3.31922 5.70433 4.87964 6.83981 6.26786 7.01196L6.36489 7.02433L6.42738 7.09916L11.5357 13.2657C12.0448 13.3873 12.3736 13.3116 12.5445 13.1423C12.7168 12.9717 12.7962 12.6422 12.6686 12.1195L1.63069 1.08305L1.63063 1.08308ZM11.4987 1.14391L8.64406 3.9986C8.32834 4.31427 8.3256 4.66162 8.48862 5.04115L8.55605 5.19822L8.43271 5.31662L7.47404 6.23088L8.25267 7.00949L9.16285 6.04832L9.28125 5.92334L9.43827 5.99159C9.83727 6.16353 10.2156 6.15648 10.5088 5.86333L13.3635 3.00864L12.9927 2.63782L11.1361 4.49355L10.7892 4.1458L12.6448 2.29013L12.2494 1.89455L10.3937 3.75028L10.0459 3.40251L11.9016 1.54683L11.4987 1.14391ZM6.13052 7.5127L1.2524 12.1672C1.13202 12.6658 1.20914 12.9772 1.37163 13.1382C1.53418 13.2991 1.84859 13.373 2.34102 13.2541L6.89852 8.44015L6.13052 7.5127Z" fill="white"/>
</g>
<defs>
<clipPath id="clip0_256_232">
<rect width="13.471" height="13.471" fill="white" transform="translate(0.580688 0.367752)"/>
</clipPath>
</defs>
</svg>
