<svg width="267" height="316" viewBox="0 0 267 316" fill="none" xmlns="http://www.w3.org/2000/svg">
<path d="M30.152 311C29.1067 311 28.2533 310.36 27.592 309.08C26.952 307.8 26.4933 306.253 26.216 304.44C25.9387 302.627 25.8 300.877 25.8 299.192C25.8 296.44 26.2373 293.997 27.112 291.864C28.008 289.709 29.5013 288.632 31.592 288.632C32.5093 288.632 33.3093 288.984 33.992 289.688C34.696 290.392 35.304 291.309 35.816 292.44C36.328 293.549 36.9467 295.096 37.672 297.08L38.216 298.584C38.1733 297.773 38.152 297.176 38.152 296.792C38.152 294.296 38.4827 292.312 39.144 290.84C39.8267 289.368 40.904 288.632 42.376 288.632C44.1467 288.632 45.3627 289.688 46.024 291.8C46.6853 293.891 47.016 296.355 47.016 299.192C47.016 300.877 46.8027 302.627 46.376 304.44C45.9707 306.253 45.2773 307.8 44.296 309.08C43.3147 310.36 42.0347 311 40.456 311C39.496 311 38.6533 310.659 37.928 309.976C37.224 309.272 36.6267 308.408 36.136 307.384C35.6667 306.36 35.1013 304.952 34.44 303.16C34.0987 302.221 33.832 301.517 33.64 301.048L33.672 303.64C33.672 305.325 33.5867 306.691 33.416 307.736C33.2453 308.76 32.904 309.56 32.392 310.136C31.9013 310.712 31.1547 311 30.152 311ZM55.6438 311.032C54.1078 311.053 52.7318 310.733 51.5158 310.072C50.3211 309.411 49.3824 308.504 48.6998 307.352C48.0384 306.179 47.6864 304.877 47.6438 303.448C47.6224 302.019 47.9531 300.739 48.6358 299.608C49.3184 298.477 50.2678 297.581 51.4838 296.92C52.7211 296.259 54.1078 295.928 55.6438 295.928C57.1371 295.928 58.4811 296.248 59.6758 296.888C60.8918 297.528 61.8518 298.424 62.5558 299.576C63.2598 300.728 63.6331 302.019 63.6758 303.448C63.6971 304.835 63.3664 306.104 62.6838 307.256C62.0011 308.387 61.0411 309.293 59.8038 309.976C58.5878 310.659 57.2011 311.011 55.6438 311.032ZM55.7398 306.36C56.3158 306.36 56.8171 306.136 57.2438 305.688C57.6704 305.24 57.8838 304.717 57.8838 304.12C57.8838 303.523 57.6704 303.011 57.2438 302.584C56.8171 302.136 56.3158 301.912 55.7398 301.912C55.1638 301.912 54.6624 302.136 54.2358 302.584C53.8091 303.011 53.5958 303.523 53.5958 304.12C53.5958 304.717 53.8091 305.24 54.2358 305.688C54.6624 306.136 55.1638 306.36 55.7398 306.36ZM78.2865 311C76.9212 311 76.0038 310.2 75.5345 308.6C75.0865 307 74.8625 304.792 74.8625 301.976C74.8625 300.696 74.9158 299.629 75.0225 298.776C75.1505 297.901 75.4385 297.165 75.8865 296.568C76.3558 295.949 77.0705 295.64 78.0305 295.64C78.6278 295.64 79.1505 295.779 79.5985 296.056C80.0678 296.333 80.3665 296.728 80.4945 297.24C80.9638 296.813 81.5718 296.493 82.3185 296.28C83.0652 296.067 83.8652 295.96 84.7185 295.96C85.4012 295.96 86.0945 296.131 86.7985 296.472C87.5238 296.813 88.1212 297.283 88.5905 297.88C89.0812 298.456 89.3265 299.085 89.3265 299.768C89.3265 300.451 89.0812 301.059 88.5905 301.592C88.1212 302.104 87.4918 302.36 86.7025 302.36C86.4465 302.36 86.2012 302.328 85.9665 302.264C85.7532 302.2 85.5612 302.136 85.3905 302.072C84.9638 301.901 84.6225 301.816 84.3665 301.816C83.5345 301.816 82.7985 302.147 82.1585 302.808C81.5398 303.448 81.2305 304.28 81.2305 305.304C81.2305 306.435 81.1878 307.373 81.1025 308.12C81.0172 308.867 80.7612 309.539 80.3345 310.136C79.9078 310.712 79.2252 311 78.2865 311ZM97.3633 311C95.7846 311 94.3873 310.691 93.1713 310.072C91.9553 309.453 91.0059 308.589 90.3233 307.48C89.6619 306.349 89.3313 305.08 89.3313 303.672C89.3313 302.285 89.6619 301.005 90.3233 299.832C91.0059 298.659 91.9446 297.72 93.1393 297.016C94.3339 296.312 95.6886 295.96 97.2033 295.96C98.5686 295.96 99.7739 296.237 100.819 296.792C101.865 297.347 102.665 298.083 103.219 299C103.774 299.896 104.051 300.835 104.051 301.816C104.051 303.416 103.443 304.589 102.227 305.336C101.033 306.061 99.6033 306.424 97.9392 306.424C96.8299 306.424 95.8913 306.285 95.1233 306.008C95.7633 307.053 96.8193 307.576 98.2913 307.576C98.8886 307.576 99.5286 307.501 100.211 307.352C100.467 307.288 100.713 307.256 100.947 307.256C101.417 307.256 101.79 307.373 102.067 307.608C102.366 307.843 102.515 308.163 102.515 308.568C102.515 309.229 102.11 309.805 101.299 310.296C100.489 310.765 99.1766 311 97.3633 311ZM95.2193 302.104C95.4113 302.403 95.6673 302.627 95.9873 302.776C96.3286 302.904 96.7019 302.968 97.1073 302.968C97.5766 302.968 97.9819 302.861 98.3233 302.648C98.6859 302.435 98.8673 302.157 98.8673 301.816C98.8673 301.432 98.7073 301.101 98.3873 300.824C98.0886 300.547 97.6513 300.408 97.0753 300.408C96.4993 300.408 96.0406 300.589 95.6993 300.952C95.3793 301.293 95.2193 301.677 95.2193 302.104ZM112.859 310.968C111.493 310.968 110.203 310.637 108.987 309.976C107.792 309.293 106.832 308.376 106.107 307.224C105.381 306.072 105.019 304.781 105.019 303.352C105.019 301.859 105.371 300.557 106.075 299.448C106.8 298.317 107.749 297.453 108.923 296.856C110.117 296.259 111.397 295.96 112.763 295.96C114.064 295.96 115.237 296.216 116.283 296.728C117.328 297.24 118.139 297.912 118.715 298.744C119.291 299.555 119.579 300.408 119.579 301.304C119.579 302.051 119.344 302.627 118.875 303.032C118.427 303.437 117.755 303.64 116.859 303.64C116.389 303.64 116.027 303.555 115.771 303.384C115.515 303.213 115.248 302.957 114.971 302.616C114.715 302.296 114.469 302.061 114.235 301.912C114.021 301.741 113.712 301.656 113.307 301.656C112.731 301.656 112.24 301.859 111.835 302.264C111.429 302.648 111.227 303.149 111.227 303.768C111.227 304.408 111.419 304.92 111.803 305.304C112.208 305.688 112.709 305.88 113.307 305.88C113.691 305.88 113.989 305.827 114.203 305.72C114.416 305.613 114.651 305.443 114.907 305.208C115.205 304.952 115.483 304.771 115.739 304.664C115.995 304.536 116.368 304.472 116.859 304.472C117.733 304.472 118.405 304.707 118.875 305.176C119.344 305.645 119.579 306.189 119.579 306.808C119.579 307.533 119.291 308.216 118.715 308.856C118.16 309.496 117.371 310.008 116.347 310.392C115.323 310.776 114.16 310.968 112.859 310.968ZM123.95 295.48C122.905 295.48 122.02 295.107 121.294 294.36C120.569 293.592 120.206 292.664 120.206 291.576C120.206 290.509 120.569 289.603 121.294 288.856C122.02 288.088 122.905 287.704 123.95 287.704C124.974 287.704 125.849 288.088 126.574 288.856C127.321 289.603 127.694 290.509 127.694 291.576C127.694 292.664 127.321 293.592 126.574 294.36C125.849 295.107 124.974 295.48 123.95 295.48ZM123.95 311C123.076 311 122.425 310.755 121.998 310.264C121.593 309.752 121.316 308.995 121.166 307.992C121.038 306.968 120.974 305.517 120.974 303.64C120.974 302.061 121.049 300.813 121.198 299.896C121.369 298.979 121.668 298.296 122.094 297.848C122.521 297.4 123.14 297.176 123.95 297.176C124.825 297.176 125.465 297.432 125.87 297.944C126.297 298.435 126.574 299.192 126.702 300.216C126.852 301.219 126.926 302.659 126.926 304.536C126.926 306.115 126.841 307.363 126.67 308.28C126.521 309.197 126.233 309.88 125.806 310.328C125.38 310.776 124.761 311 123.95 311ZM131.939 315.576C130.894 315.576 130.136 315.043 129.667 313.976C129.198 312.931 128.91 311.736 128.803 310.392C128.718 309.048 128.675 307.277 128.675 305.08C128.675 303.395 128.739 301.912 128.867 300.632C129.016 299.352 129.347 298.243 129.859 297.304C130.371 296.365 131.15 295.896 132.195 295.896C133.283 295.896 134.072 296.323 134.563 297.176C135.054 296.813 135.662 296.525 136.387 296.312C137.134 296.077 137.912 295.96 138.723 295.96C140.088 295.96 141.347 296.301 142.499 296.984C143.651 297.667 144.568 298.584 145.251 299.736C145.934 300.888 146.275 302.147 146.275 303.512C146.275 304.877 145.934 306.147 145.251 307.32C144.568 308.472 143.651 309.389 142.499 310.072C141.347 310.755 140.088 311.096 138.723 311.096C137.891 311.096 137.112 310.989 136.387 310.776C135.662 310.541 135.043 310.232 134.531 309.848C134.531 311.213 134.488 312.269 134.403 313.016C134.318 313.763 134.083 314.371 133.699 314.84C133.336 315.331 132.75 315.576 131.939 315.576ZM138.563 305.784C139.118 305.784 139.598 305.581 140.003 305.176C140.43 304.749 140.643 304.259 140.643 303.704C140.643 303.149 140.43 302.669 140.003 302.264C139.598 301.837 139.118 301.624 138.563 301.624C138.008 301.624 137.518 301.837 137.091 302.264C136.686 302.669 136.483 303.149 136.483 303.704C136.483 304.259 136.686 304.749 137.091 305.176C137.518 305.581 138.008 305.784 138.563 305.784ZM155.27 311C153.691 311 152.294 310.691 151.078 310.072C149.862 309.453 148.912 308.589 148.23 307.48C147.568 306.349 147.238 305.08 147.238 303.672C147.238 302.285 147.568 301.005 148.23 299.832C148.912 298.659 149.851 297.72 151.046 297.016C152.24 296.312 153.595 295.96 155.11 295.96C156.475 295.96 157.68 296.237 158.726 296.792C159.771 297.347 160.571 298.083 161.126 299C161.68 299.896 161.958 300.835 161.958 301.816C161.958 303.416 161.35 304.589 160.134 305.336C158.939 306.061 157.51 306.424 155.845 306.424C154.736 306.424 153.798 306.285 153.03 306.008C153.67 307.053 154.726 307.576 156.198 307.576C156.795 307.576 157.435 307.501 158.118 307.352C158.374 307.288 158.619 307.256 158.854 307.256C159.323 307.256 159.696 307.373 159.974 307.608C160.272 307.843 160.422 308.163 160.422 308.568C160.422 309.229 160.016 309.805 159.206 310.296C158.395 310.765 157.083 311 155.27 311ZM153.126 302.104C153.318 302.403 153.574 302.627 153.894 302.776C154.235 302.904 154.608 302.968 155.014 302.968C155.483 302.968 155.888 302.861 156.23 302.648C156.592 302.435 156.774 302.157 156.774 301.816C156.774 301.432 156.614 301.101 156.294 300.824C155.995 300.547 155.558 300.408 154.982 300.408C154.406 300.408 153.947 300.589 153.606 300.952C153.286 301.293 153.126 301.677 153.126 302.104ZM169.069 311C167.192 311 165.698 310.691 164.589 310.072C163.48 309.453 162.925 308.653 162.925 307.672C162.925 307.032 163.138 306.541 163.565 306.2C164.013 305.837 164.578 305.656 165.261 305.656C165.645 305.656 165.954 305.709 166.189 305.816C166.424 305.923 166.658 306.072 166.893 306.264C167.064 306.413 167.202 306.52 167.309 306.584C167.437 306.648 167.586 306.68 167.757 306.68C168.205 306.68 168.429 306.52 168.429 306.2C168.429 305.901 168.312 305.677 168.077 305.528C167.842 305.357 167.437 305.155 166.861 304.92C166.328 304.707 165.976 304.557 165.805 304.472C164.824 304.003 164.098 303.448 163.629 302.808C163.16 302.168 162.925 301.485 162.925 300.76C162.925 299.949 163.213 299.181 163.789 298.456C164.386 297.709 165.218 297.112 166.285 296.664C167.373 296.195 168.621 295.96 170.029 295.96C171.245 295.96 172.344 296.131 173.325 296.472C174.328 296.813 175.117 297.283 175.693 297.88C176.269 298.456 176.557 299.096 176.557 299.8C176.557 300.461 176.344 300.963 175.917 301.304C175.512 301.645 174.957 301.816 174.253 301.816C173.976 301.816 173.752 301.795 173.581 301.752C173.432 301.688 173.229 301.592 172.973 301.464C172.824 301.379 172.664 301.304 172.493 301.24C172.344 301.176 172.173 301.144 171.981 301.144C171.81 301.144 171.661 301.208 171.533 301.336C171.405 301.443 171.341 301.581 171.341 301.752C171.341 302.072 171.576 302.307 172.045 302.456C173.282 302.861 174.274 303.373 175.021 303.992C175.789 304.611 176.173 305.464 176.173 306.552C176.173 307.939 175.522 309.027 174.221 309.816C172.941 310.605 171.224 311 169.069 311ZM209.082 296.44C209.082 299.085 208.442 301.197 207.162 302.776C205.882 304.333 204.122 305.368 201.882 305.88C201.903 306.179 201.914 306.637 201.914 307.256C201.914 308.451 201.562 309.379 200.858 310.04C200.175 310.68 199.354 311 198.394 311C197.37 311 196.474 310.669 195.706 310.008C194.938 309.325 194.554 308.408 194.554 307.256C194.554 306.595 194.564 306.115 194.586 305.816C192.474 305.261 190.799 304.227 189.562 302.712C188.346 301.197 187.738 299.235 187.738 296.824C187.738 294.285 188.164 292.291 189.018 290.84C189.871 289.389 191.13 288.664 192.794 288.664C193.988 288.664 194.938 289.027 195.642 289.752C196.346 290.456 196.698 291.437 196.698 292.696C196.698 293.037 196.644 293.827 196.538 295.064C196.452 295.832 196.41 296.312 196.41 296.504C196.41 297.4 196.559 298.083 196.858 298.552C197.178 299.021 197.69 299.256 198.394 299.256C199.098 299.256 199.599 299.021 199.898 298.552C200.218 298.083 200.378 297.4 200.378 296.504C200.378 296.291 200.335 295.8 200.25 295.032C200.143 293.752 200.09 292.963 200.09 292.664C200.09 291.427 200.452 290.456 201.178 289.752C201.903 289.027 202.852 288.664 204.026 288.664C205.69 288.664 206.948 289.368 207.802 290.776C208.655 292.184 209.082 294.072 209.082 296.44ZM217.113 311C215.535 311 214.137 310.691 212.921 310.072C211.705 309.453 210.756 308.589 210.073 307.48C209.412 306.349 209.081 305.08 209.081 303.672C209.081 302.285 209.412 301.005 210.073 299.832C210.756 298.659 211.695 297.72 212.889 297.016C214.084 296.312 215.439 295.96 216.953 295.96C218.319 295.96 219.524 296.237 220.569 296.792C221.615 297.347 222.415 298.083 222.969 299C223.524 299.896 223.801 300.835 223.801 301.816C223.801 303.416 223.193 304.589 221.977 305.336C220.783 306.061 219.353 306.424 217.689 306.424C216.58 306.424 215.641 306.285 214.873 306.008C215.513 307.053 216.569 307.576 218.041 307.576C218.639 307.576 219.279 307.501 219.961 307.352C220.217 307.288 220.463 307.256 220.697 307.256C221.167 307.256 221.54 307.373 221.817 307.608C222.116 307.843 222.265 308.163 222.265 308.568C222.265 309.229 221.86 309.805 221.049 310.296C220.239 310.765 218.927 311 217.113 311ZM214.969 302.104C215.161 302.403 215.417 302.627 215.737 302.776C216.079 302.904 216.452 302.968 216.857 302.968C217.327 302.968 217.732 302.861 218.073 302.648C218.436 302.435 218.617 302.157 218.617 301.816C218.617 301.432 218.457 301.101 218.137 300.824C217.839 300.547 217.401 300.408 216.825 300.408C216.249 300.408 215.791 300.589 215.449 300.952C215.129 301.293 214.969 301.677 214.969 302.104ZM240.385 297.144C240.385 298.253 239.862 299.011 238.817 299.416C237.771 299.8 236.342 300.003 234.529 300.024C234.507 300.557 234.497 301.421 234.497 302.616C234.497 303.832 234.582 304.696 234.753 305.208C234.859 305.571 235.019 305.805 235.233 305.912C235.467 306.019 235.809 306.093 236.257 306.136C236.406 306.157 236.566 306.189 236.737 306.232C236.929 306.253 237.142 306.285 237.377 306.328C237.867 306.435 238.251 306.701 238.529 307.128C238.806 307.533 238.945 308.056 238.945 308.696C238.945 309.421 238.571 309.987 237.825 310.392C237.078 310.797 236.054 311 234.753 311C233.558 311 232.417 310.659 231.329 309.976C230.241 309.272 229.494 308.333 229.089 307.16C228.662 305.901 228.449 303.523 228.449 300.024C226.955 299.981 225.75 299.789 224.833 299.448C223.937 299.085 223.489 298.445 223.489 297.528C223.489 296.376 223.915 295.608 224.769 295.224C225.622 294.819 226.849 294.605 228.449 294.584C228.513 292.877 228.779 291.459 229.249 290.328C229.718 289.176 230.561 288.6 231.777 288.6C233.014 288.6 233.814 289.133 234.177 290.2C234.561 291.267 234.731 292.728 234.689 294.584C236.63 294.563 238.059 294.712 238.977 295.032C239.915 295.352 240.385 296.056 240.385 297.144Z" fill="#455A64"/>
<path d="M259.169 26.3223H196.234V91.9281H259.169V26.3223Z" fill="#E0E0E0"/>
<path d="M254.907 26.3223H191.972V91.9281H254.907V26.3223Z" fill="#FAFAFA"/>
<path d="M254.925 91.9461H191.948V26.299H254.925V91.9461ZM191.989 91.9048H254.884V26.3402H191.989V91.9048Z" fill="#E0E0E0"/>
<path d="M246.448 35.1412H200.431V83.1091H246.448V35.1412Z" fill="#FAFAFA"/>
<path d="M200.431 83.421C200.107 83.9054 199.725 84.3488 199.293 84.7415C198.562 85.5197 197.525 86.569 196.346 87.689C195.167 88.8091 194.123 89.8466 193.339 90.5658C192.943 90.9866 192.498 91.3587 192.013 91.6741C192.337 91.1946 192.715 90.7535 193.139 90.3595C193.876 89.5872 194.908 88.532 196.087 87.412C197.266 86.2919 198.315 85.2544 199.099 84.5293C199.498 84.1088 199.945 83.7368 200.431 83.421Z" fill="#E0E0E0"/>
<path d="M246.448 83.304C246.928 83.6316 247.369 84.0133 247.762 84.4417C248.541 85.1786 249.59 86.2102 250.71 87.3892C251.83 88.5682 252.868 89.6117 253.593 90.3957C254.013 90.7928 254.384 91.2403 254.695 91.728C254.217 91.4002 253.776 91.0206 253.38 90.5961C252.608 89.8593 251.553 88.8276 250.433 87.6486C249.313 86.4696 248.275 85.4203 247.556 84.6363C247.13 84.243 246.757 83.795 246.448 83.304Z" fill="#E0E0E0"/>
<path d="M246.318 35.2653C246.646 34.7836 247.028 34.3406 247.456 33.9448C248.187 33.1725 249.224 32.1232 250.403 30.9973C251.582 29.8713 252.626 28.8456 253.41 28.1205C253.81 27.7013 254.257 27.3295 254.742 27.0122C254.418 27.4935 254.038 27.9348 253.61 28.3268C252.873 29.105 251.842 30.1543 250.663 31.2743C249.484 32.3944 248.434 33.4378 247.65 34.157C247.256 34.582 246.808 34.9545 246.318 35.2653Z" fill="#E0E0E0"/>
<path d="M200.307 35.3828C199.824 35.0593 199.38 34.6794 198.987 34.251C198.209 33.5141 197.159 32.4825 196.039 31.3034C194.919 30.1244 193.882 29.0869 193.157 28.3029C192.737 27.9043 192.367 27.457 192.054 26.9706C192.535 27.296 192.976 27.6758 193.369 28.1024C194.141 28.8334 195.196 29.871 196.316 31.05C197.436 32.229 198.474 33.2783 199.199 34.0623C199.618 34.4583 199.99 34.9014 200.307 35.3828Z" fill="#E0E0E0"/>
<path d="M246.318 83.1032C246.318 83.1032 246.318 83.0207 246.318 82.8733C246.318 82.7259 246.318 82.4901 246.318 82.2013C246.318 81.6118 246.318 80.7334 246.318 79.6134C246.318 77.3379 246.318 74.0367 246.271 69.8394C246.271 61.439 246.218 49.4662 246.183 35.1412L246.359 35.3181H200.478L200.679 35.1176C200.679 52.7202 200.679 69.1909 200.679 83.0796L200.502 82.9087L233.726 82.9971L243.058 83.0443H245.528H246.165H246.389C246.322 83.05 246.255 83.05 246.188 83.0443H245.569H243.135L233.838 83.0914L200.502 83.1799H200.325V83.003C200.325 69.1143 200.325 52.6436 200.296 35.041V34.8347H200.508H246.389H246.566V35.0115C246.53 49.3836 246.501 61.3918 246.477 69.8217C246.477 74.0013 246.442 77.2966 246.43 79.5544C246.43 80.6627 246.43 81.5175 246.43 82.1129C246.43 82.3899 246.43 82.6021 246.43 82.7613C246.409 82.8801 246.372 82.9952 246.318 83.1032Z" fill="#E0E0E0"/>
<path d="M224.784 53.958C223.955 52.7303 222.811 51.7483 221.472 51.1149C220.133 50.4815 218.648 50.2201 217.174 50.3582C215.699 50.4963 214.289 51.0287 213.09 51.8996C211.892 52.7705 210.951 53.9478 210.364 55.3079C209.906 56.4669 209.68 57.7048 209.7 58.951C209.721 60.1972 209.986 61.4272 210.482 62.5706C211.495 64.8568 213.144 66.803 215.234 68.1768C220.616 71.8435 228.415 71.6785 233.42 67.5107C235.347 66.0109 236.658 63.8571 237.104 61.4565C237.309 60.0627 237.12 58.6393 236.557 57.3478C235.994 56.0564 235.08 54.9488 233.919 54.1507C232.758 53.3526 231.396 52.896 229.989 52.8327C228.581 52.7695 227.184 53.1021 225.957 53.7929" fill="#E0E0E0"/>
<path d="M224.807 53.9522C224.629 53.2997 224.227 52.731 223.67 52.3469C223.113 51.9628 222.439 51.7881 221.765 51.8536L223.563 53.9935C223.071 54.0641 222.606 54.2654 222.217 54.5763C221.828 54.8873 221.53 55.2967 221.353 55.762C221.264 55.9801 221.241 56.2867 221.447 56.3987C221.522 56.4214 221.601 56.4289 221.679 56.4208C221.757 56.4127 221.832 56.3892 221.901 56.3515L224.088 55.4437C224.239 56.6649 224.686 57.8306 225.391 58.8392C225.892 57.7685 226.173 56.6076 226.216 55.426L228.633 56.493C228.439 55.803 228.043 55.187 227.495 54.7245C228.211 54.5852 228.896 54.3175 229.517 53.9346C229.706 53.8167 229.912 53.6162 229.824 53.4158C229.735 53.2154 229.565 53.2154 229.394 53.2036C227.798 53.0487 226.192 53.3817 224.79 54.1586" fill="#EBEBEB"/>
<path d="M224.648 54.854C225.026 52.4088 224.824 49.9089 224.058 47.556C224.648 47.4263 225.343 47.3438 225.715 47.7977C225.905 48.0867 225.99 48.432 225.957 48.7763C225.984 51.0825 225.545 53.3704 224.666 55.5025" fill="#EBEBEB"/>
<path d="M212.911 63.6079C212.767 63.5019 212.64 63.3747 212.534 63.2306C212.222 62.8538 211.951 62.4447 211.726 62.0103C210.959 60.569 210.687 58.9151 210.953 57.3041C211.22 55.6931 212.009 54.2146 213.2 53.0971C213.559 52.7584 213.955 52.4599 214.379 52.2069C214.523 52.1017 214.685 52.0219 214.856 51.9711C214.328 52.3584 213.826 52.7798 213.353 53.2326C212.238 54.3518 211.5 55.7912 211.242 57.35C210.984 58.9087 211.219 60.5091 211.915 61.9278C212.21 62.5086 212.543 63.0698 212.911 63.6079Z" fill="white"/>
<path d="M215.334 65.4476C215.334 65.5124 214.927 65.4476 214.544 65.1528C214.161 64.8581 213.954 64.5633 214.013 64.5044C214.072 64.4454 214.343 64.6871 214.697 64.9406C215.051 65.1941 215.363 65.3768 215.334 65.4476Z" fill="white"/>
<path d="M117.093 7.21014H29.4397V98.5832H117.093V7.21014Z" fill="#E0E0E0"/>
<path d="M111.157 7.21014H23.5035V98.5832H111.157V7.21014Z" fill="#FAFAFA"/>
<path d="M111.186 98.6071H23.474V7.18105H111.186V98.6071ZM23.5447 98.5541H111.127V7.2341H23.5447V98.5541Z" fill="#E0E0E0"/>
<path d="M99.3726 19.4894H35.2877V86.2919H99.3726V19.4894Z" fill="#FAFAFA"/>
<path d="M35.2877 86.7401C34.8319 87.4107 34.3019 88.0276 33.7078 88.5793C32.6821 89.6581 31.2437 91.1201 29.6343 92.7059C28.025 94.2916 26.5394 95.7064 25.443 96.7086C24.3465 97.7107 23.6744 98.312 23.5919 98.2531C24.0443 97.5834 24.5724 96.9682 25.1659 96.4197C26.1916 95.3409 27.63 93.879 29.2512 92.2932C30.8723 90.7074 32.3519 89.2808 33.4425 88.2728C34.5331 87.2647 35.2346 86.6811 35.2877 86.7401Z" fill="#E0E0E0"/>
<path d="M99.3726 86.5981C100.044 87.055 100.661 87.587 101.212 88.1839C102.291 89.2037 103.753 90.6421 105.338 92.2573C106.924 93.8726 108.339 95.3463 109.347 96.4428C109.932 96.9958 110.449 97.6173 110.886 98.2938C110.217 97.8421 109.604 97.3139 109.058 96.7199C107.973 95.7 106.511 94.2557 104.932 92.6405C103.352 91.0253 101.919 89.5338 100.917 88.4432C99.9149 87.3527 99.3136 86.6276 99.3726 86.5981Z" fill="#E0E0E0"/>
<path d="M99.1958 19.6721C99.6472 18.9999 100.175 18.3826 100.77 17.8328C101.79 16.7481 103.228 15.2862 104.843 13.7063C106.458 12.1264 107.938 10.7057 109.029 9.69766C109.582 9.11229 110.203 8.5957 110.88 8.15906C110.939 8.21211 110.332 8.90773 109.306 9.98652C108.28 11.0653 106.842 12.5332 105.226 14.113C103.611 15.6929 102.126 17.1254 101.029 18.1276C99.9327 19.1297 99.2489 19.731 99.1958 19.6721Z" fill="#E0E0E0"/>
<path d="M35.1108 19.8315C34.4367 19.3804 33.8192 18.85 33.2716 18.2516C32.1928 17.2259 30.7308 15.7934 29.145 14.1782C27.5593 12.5629 26.1386 11.0833 25.1364 9.9927C24.5521 9.43718 24.0338 8.81606 23.5919 8.14166C23.6509 8.08271 24.3465 8.6899 25.4253 9.70974C26.5041 10.7296 27.9719 12.1798 29.5518 13.795C31.1317 15.4102 32.5583 16.8958 33.5663 17.9923C34.1516 18.5426 34.67 19.1599 35.1108 19.8315Z" fill="#E0E0E0"/>
<path d="M99.1957 86.2984C99.1957 86.2984 99.1957 86.1805 99.1957 85.9742C99.1957 85.7679 99.1957 85.4378 99.1957 85.0428C99.1957 84.1978 99.1957 82.9953 99.1957 81.435C99.1957 78.2694 99.1604 73.6654 99.1309 67.8175C99.1309 56.1159 99.0543 39.4506 99.0071 19.4782L99.2488 19.7258L35.3466 19.7612L35.6296 19.4782C35.6296 44.0016 35.6001 66.9391 35.5883 86.2867L35.3466 86.0391L81.6227 86.1688L94.6212 86.2277L98.058 86.2572H98.9482C99.0502 86.2496 99.1527 86.2496 99.2547 86.2572C99.1624 86.2629 99.0699 86.2629 98.9776 86.2572H98.1111L94.7214 86.2867L81.7523 86.3515L35.3231 86.4753H35.0814V86.2336C35.0814 66.8861 35.0519 43.9485 35.0401 19.4252V19.1422H35.329L99.2311 19.1776H99.4846V19.4252C99.4374 39.4683 99.3903 56.1748 99.3608 67.9118C99.3608 73.7361 99.3137 78.3225 99.296 81.4704C99.296 83.0149 99.296 84.2057 99.2665 85.0074C99.2665 85.3906 99.2665 85.6913 99.2665 85.9094C99.2575 86.0413 99.2338 86.1718 99.1957 86.2984Z" fill="#E0E0E0"/>
<path d="M67.056 32.0698C66.8379 32.8067 63.0828 38.7253 57.6711 40.7355C52.2595 42.7457 48.2391 44.974 49.7364 47.6209C51.2337 50.2678 57.8892 48.8294 57.8892 48.8294C57.8892 48.8294 44.3955 63.4962 57.0993 71.879C72.5856 82.095 88.7733 45.5105 88.7733 45.5105L67.056 32.0698Z" fill="#EBEBEB"/>
<path d="M86.2208 50.5335C86.1795 50.6042 81.0744 47.586 74.8198 43.7365C68.5652 39.8871 63.5249 36.7627 63.5662 36.6625C63.6074 36.5623 68.7125 39.61 74.9731 43.4595C81.2336 47.3089 86.2621 50.4628 86.2208 50.5335Z" fill="#E0E0E0"/>
<path d="M83.8274 54.9189C83.7802 54.9897 78.2684 51.7533 71.5068 47.6916C64.7452 43.6299 59.2981 40.2816 59.3394 40.2108C59.3807 40.1401 64.8925 43.3765 71.66 47.4381C78.4275 51.4998 83.8686 54.8482 83.8274 54.9189Z" fill="#E0E0E0"/>
<path d="M80.9329 59.0751C80.8857 59.1458 74.696 55.5027 67.0973 50.94C59.4986 46.3772 53.3736 42.6162 53.4149 42.5513C53.4561 42.4865 59.6518 46.1237 67.2505 50.6865C74.8492 55.2492 80.9742 59.0103 80.9329 59.0751Z" fill="#E0E0E0"/>
<path d="M77.3192 64.1972C77.272 64.2679 72.4735 61.3381 66.5961 57.6596C60.7188 53.9811 55.985 50.9393 56.0322 50.8744C56.0794 50.8096 60.872 53.7335 66.7553 57.412C72.6385 61.0905 77.3604 64.15 77.3192 64.1972Z" fill="#E0E0E0"/>
<path d="M73.0631 69.1907C73.0218 69.2555 68.5534 66.3729 63.0828 62.7474C57.6122 59.122 53.2204 56.1273 53.2616 56.0625C53.3029 55.9976 57.7772 58.8803 63.2478 62.5057C68.7184 66.1312 73.1161 69.12 73.0631 69.1907Z" fill="#E0E0E0"/>
<path d="M67.6514 72.633C67.4142 72.5526 67.1868 72.4458 66.9734 72.3147C66.549 72.0965 65.9359 71.7605 65.2049 71.342C63.7076 70.499 61.6679 69.2846 59.4573 67.8698C57.2466 66.455 55.2954 65.105 53.9042 64.097C53.2085 63.59 52.6544 63.1773 52.2771 62.8826C52.0627 62.7446 51.8649 62.5824 51.6876 62.3992C51.9124 62.5072 52.1257 62.6375 52.3243 62.7883L54.0103 63.926C55.431 64.8928 57.394 66.2133 59.5988 67.6222C61.8035 69.0311 63.8255 70.275 65.2934 71.1592L67.0619 72.2203C67.2721 72.3372 67.4696 72.4755 67.6514 72.633Z" fill="#E0E0E0"/>
<path d="M54.9476 49.1593C53.8746 48.8891 52.8598 48.4257 51.953 47.7917C50.9968 47.2361 50.1481 46.5133 49.4476 45.6577C49.5065 45.5928 50.5912 46.5832 52.1121 47.5441C53.633 48.505 54.983 49.0827 54.9476 49.1593Z" fill="#E0E0E0"/>
<path d="M87.7652 44.7444C87.7113 44.8568 87.6461 44.9634 87.5707 45.0627L86.9812 45.9352C86.4565 46.6957 85.6784 47.7803 84.7057 49.1185C82.7603 51.7831 79.9897 55.4262 76.883 59.3759C73.7763 63.3255 70.817 66.8154 68.6299 69.3149C67.5512 70.5646 66.6728 71.5668 66.0538 72.2624L65.3523 73.0406C65.2738 73.1384 65.1849 73.2274 65.087 73.3058C65.1519 73.1987 65.2269 73.098 65.3111 73.0052L65.9831 72.1858L68.4944 69.1852C70.6107 66.6562 73.511 63.1369 76.6413 59.199C79.7716 55.2611 82.5363 51.6357 84.5289 49.0006L86.8869 45.8762L87.5353 45.0333C87.6046 44.9313 87.6815 44.8348 87.7652 44.7444Z" fill="#E0E0E0"/>
<path d="M83.3735 41.6201C83.4383 41.6732 78.0679 48.6942 71.3594 57.3009C64.6508 65.9077 59.1744 72.852 59.1154 72.799C59.0565 72.7459 64.4209 65.7249 71.1295 57.1182C77.838 48.5114 83.3086 41.573 83.3735 41.6201Z" fill="#E0E0E0"/>
<path d="M77.2486 38.1477C77.207 38.2706 77.1495 38.3875 77.0776 38.4955L76.5235 39.4682C76.0401 40.3053 75.3091 41.5078 74.3659 42.958C72.4854 45.9055 69.6911 49.7668 66.3899 53.9051C63.0887 58.0434 59.982 61.6806 57.736 64.3157L55.0597 67.4224L54.3169 68.2595C54.2374 68.3619 54.1464 68.4549 54.0457 68.5366C54.1128 68.4257 54.1898 68.3212 54.2756 68.2241L54.9712 67.3517L57.5768 64.186C59.7875 61.5156 62.8824 57.8607 66.16 53.7224C69.4376 49.584 72.2732 45.7228 74.1891 42.846C75.1558 41.4076 75.9104 40.2286 76.4292 39.4092L77.0187 38.466C77.0872 38.3543 77.1641 38.2479 77.2486 38.1477Z" fill="#E0E0E0"/>
<path d="M72.226 35.2705C72.2908 35.3176 67.7045 41.3895 61.9863 48.8291C56.2681 56.2686 51.5757 62.2579 51.5108 62.2108C51.446 62.1636 56.0323 56.0917 61.7505 48.6522C67.4687 41.2127 72.1611 35.2233 72.226 35.2705Z" fill="#E0E0E0"/>
<path d="M68.4472 32.8064C68.3046 33.0882 68.1431 33.3599 67.9638 33.6199C67.7988 33.8793 67.5983 34.2094 67.339 34.5337C67.0796 34.8579 66.8084 35.2882 66.4547 35.7127C65.6653 36.7114 64.8148 37.6604 63.9081 38.5541C62.7976 39.6433 61.616 40.6575 60.371 41.59C59.1082 42.5047 57.7869 43.3357 56.4155 44.0777C55.2915 44.675 54.132 45.2026 52.9433 45.6576C52.4422 45.8698 51.9706 46.0113 51.5639 46.1528C51.1571 46.2942 50.7975 46.3945 50.5028 46.4711C50.2035 46.5717 49.8957 46.6447 49.5831 46.6892C49.8688 46.5579 50.1645 46.4495 50.4674 46.365C50.7562 46.2707 51.1099 46.1528 51.5049 45.9995C51.8999 45.8462 52.3715 45.6871 52.8667 45.4689C54.0349 44.9864 55.1762 44.4413 56.2858 43.836C57.6415 43.0898 58.9489 42.2589 60.2001 41.3483C61.4395 40.4258 62.6207 39.4276 63.7371 38.3595C64.646 37.4819 65.506 36.555 66.3132 35.583C66.6728 35.1762 66.9558 34.7812 67.227 34.4452C67.4981 34.1092 67.7104 33.8145 67.8872 33.5669C68.0527 33.2985 68.24 33.0441 68.4472 32.8064Z" fill="#E0E0E0"/>
<path d="M51.8704 209.628C51.6169 209.687 53.5151 219.248 53.5151 219.248H58.3903L60.542 210.005C57.7473 209.051 54.7374 208.92 51.8704 209.628Z" fill="#E0E0E0"/>
<path d="M48.9346 263.45C48.9346 263.45 41.7663 243.407 42.7684 237.93C43.7706 232.454 45.9282 231.334 47.6436 229.612C49.3591 227.891 50.8034 226.459 51.2337 224.737C51.664 223.016 51.2337 216.13 51.2337 216.13C51.2337 216.13 49.9427 214.126 50.373 213.407C50.8034 212.688 61.4144 213.407 61.4144 213.407C61.3547 214.284 61.0571 215.127 60.5538 215.848C60.5538 215.848 60.2649 223.877 60.6952 224.737C61.1256 225.598 67.7221 232.914 68.7243 236.639C69.7264 240.365 64.7628 263.45 64.7628 263.45H48.9346Z" fill="#F5F5F5"/>
<path d="M48.9347 263.449C49.0289 263.445 49.1234 263.445 49.2176 263.449H50.0253H53.1378L64.7628 263.396L64.6685 263.473C65.258 260.526 65.9419 257.248 66.6139 253.605C67.2859 249.962 67.9815 245.994 68.4708 241.738C68.5828 240.671 68.6889 239.586 68.7125 238.49C68.7385 237.946 68.7049 237.4 68.6123 236.863C68.4695 236.327 68.272 235.808 68.0228 235.312C66.9257 233.271 65.6451 231.333 64.1969 229.524C63.4718 228.58 62.7232 227.643 61.9627 226.694C61.5795 226.222 61.1964 225.751 60.825 225.256C60.7271 225.127 60.6366 224.993 60.5538 224.855C60.4925 224.695 60.451 224.529 60.43 224.36C60.3828 224.047 60.3652 223.741 60.3475 223.428C60.2414 220.946 60.3121 218.429 60.3887 215.882V215.841V215.8C60.5105 215.61 60.6208 215.413 60.7189 215.21C61.0006 214.659 61.1728 214.059 61.2258 213.442L61.3673 213.595C58.9445 213.442 56.557 213.324 54.2166 213.283C53.0673 213.241 51.9164 213.286 50.7739 213.418C50.6695 213.437 50.5683 213.471 50.4733 213.519C50.4183 213.615 50.3937 213.726 50.4025 213.837C50.4205 214.103 50.4781 214.366 50.5735 214.615C50.7755 215.129 51.0262 215.623 51.3222 216.089V216.124V216.16C51.4283 217.993 51.499 219.797 51.5049 221.571C51.5189 222.455 51.4854 223.338 51.4047 224.218C51.2962 225.097 50.9678 225.934 50.4497 226.653C49.9581 227.344 49.412 227.994 48.8168 228.598C48.2273 229.188 47.6378 229.777 47.0483 230.337C46.4483 230.86 45.8831 231.421 45.3564 232.017C44.889 232.598 44.4931 233.234 44.1774 233.909C43.5484 235.254 43.1137 236.681 42.8864 238.148C42.8128 238.848 42.8128 239.553 42.8864 240.253C42.9335 240.948 43.0279 241.626 43.1281 242.298C43.5525 244.957 44.1656 247.386 44.7374 249.584C45.9164 253.97 47.0247 257.425 47.791 259.795C48.1742 260.974 48.4749 261.881 48.6812 262.512C48.7814 262.813 48.858 263.043 48.9111 263.214C48.9642 263.385 48.9818 263.455 48.9818 263.455L48.8875 263.22C48.8286 263.055 48.7401 262.825 48.634 262.53C48.41 261.94 48.0917 261.009 47.6908 259.83C46.895 257.472 45.7573 254.017 44.5547 249.632C43.8797 247.229 43.3287 244.793 42.9041 242.333C42.8038 241.661 42.7036 240.978 42.6506 240.27C42.5742 239.553 42.5742 238.83 42.6506 238.113C42.8722 236.619 43.309 235.166 43.9475 233.797C44.2938 233.084 44.7275 232.417 45.2385 231.811C45.7745 231.206 46.3474 230.635 46.954 230.101C47.5435 229.559 48.133 228.969 48.7225 228.374C49.3085 227.782 49.843 227.141 50.32 226.458C50.8149 225.778 51.1274 224.982 51.2279 224.147C51.3041 223.279 51.3356 222.407 51.3222 221.536C51.3222 219.767 51.2337 217.999 51.1276 216.142V216.213C50.8202 215.728 50.5615 215.215 50.3554 214.68C50.2417 214.4 50.1759 214.103 50.1609 213.802C50.1488 213.625 50.1943 213.449 50.2905 213.3C50.4259 213.181 50.5948 213.107 50.7739 213.088C51.9354 212.947 53.1065 212.9 54.2756 212.947C56.6336 212.982 58.9916 213.1 61.4439 213.253H61.5972V213.395C61.5528 214.068 61.3681 214.725 61.0549 215.322C60.9497 215.525 60.8335 215.722 60.7071 215.912L60.7365 215.835C60.6599 218.376 60.5892 220.893 60.6953 223.351C60.7054 223.653 60.731 223.954 60.7719 224.253C60.7882 224.392 60.8198 224.528 60.8662 224.66C60.9408 224.783 61.0235 224.902 61.1138 225.014C61.4734 225.503 61.8625 225.975 62.2398 226.446C63.0002 227.395 63.7489 228.333 64.474 229.282C65.9349 231.108 67.2236 233.066 68.3235 235.13C68.5736 235.645 68.7711 236.184 68.913 236.739C69.0073 237.3 69.0409 237.869 69.0132 238.437C69.0132 239.551 68.8835 240.642 68.7656 241.709C68.2645 245.982 67.5394 249.962 66.8674 253.593C66.1953 257.224 65.5056 260.537 64.8807 263.455V263.538H64.7982L53.1261 263.491H50.0312H49.2353L48.9347 263.449Z" fill="#E0E0E0"/>
<path d="M63.3892 261.375C65.2078 254.665 66.4134 247.805 66.9911 240.877C67.05 240.088 67.05 239.174 66.4546 238.649C65.7237 238.012 64.6036 238.354 63.6781 238.649C60.9574 239.509 58.0626 239.664 55.2659 239.097C52.5483 238.537 49.8542 237.293 47.113 237.741C46.7703 237.775 46.4377 237.877 46.1342 238.04C45.8307 238.202 45.5624 238.424 45.3445 238.69C44.8965 239.351 45.0026 240.223 45.1323 241.007C46.2052 247.745 48.4041 255.497 50.1902 261.375H63.3892Z" fill="#E0E0E0"/>
<path d="M65.1932 239.474C65.0465 239.692 64.8722 239.891 64.6744 240.064C64.165 240.533 63.6189 240.961 63.0415 241.343C61.135 242.651 58.9432 243.484 56.649 243.772C54.3549 244.061 52.0251 243.796 49.8543 243C49.2019 242.763 48.5692 242.475 47.962 242.139C47.7313 242.027 47.5155 241.886 47.3195 241.72C47.3489 241.667 48.2745 242.245 49.9251 242.793C52.0696 243.518 54.3501 243.747 56.596 243.466C58.8419 243.184 60.995 242.398 62.8941 241.166C64.3974 240.223 65.1519 239.433 65.1932 239.474Z" fill="white"/>
<path d="M184.762 130.605C182.927 130.809 181.074 130.809 179.239 130.605C181.074 130.401 182.927 130.401 184.762 130.605Z" fill="#FAFAFA"/>
<path d="M266.42 264.204C266.42 264.293 206.78 264.363 133.228 264.363C59.6754 264.363 0 264.293 0 264.204C0 264.116 59.6224 264.039 133.192 264.039C206.762 264.039 266.42 264.122 266.42 264.204Z" fill="#263238"/>
<path d="M213.117 230.927C215.988 228.864 218.912 226.771 222.237 225.562C225.562 224.354 229.405 224.118 232.553 225.739C235.188 227.095 237.086 229.63 238.177 232.389C239.522 235.815 239.749 239.579 238.825 243.141C238.324 245.063 237.328 247.05 235.501 247.828C233.673 248.606 231.569 247.934 229.753 247.121C223.794 244.444 218.633 240.265 214.774 234.995C215.162 234.685 215.633 234.496 216.128 234.452C216.622 234.408 217.119 234.51 217.556 234.747C218.419 235.234 219.204 235.848 219.885 236.569C222.19 238.657 224.97 240.15 227.984 240.919C230.213 241.509 233.213 241.243 233.962 239.068C234.451 237.647 233.673 236.12 232.919 234.829C232.058 233.338 231.073 231.74 229.458 231.145C228.244 230.703 226.906 230.915 225.632 231.145L211.732 233.533L212.592 233.279" fill="#455A64"/>
<path d="M178.413 43.4408C169.246 40.8824 155.664 44.443 150.477 52.419C145.289 60.395 147.576 72.2322 147.169 81.735C146.763 91.2378 147.169 100.894 144.864 110.131C143.414 116.026 140.638 121.921 135.533 125.193C129.697 128.907 120.948 129.273 118.184 135.616C115.879 140.921 119.457 147.406 117.128 152.711C116.103 155.069 114.022 156.838 113.126 159.225C111.888 162.538 113.243 166.394 115.678 168.958C118.113 171.522 121.443 173.025 124.762 174.263C134.873 177.967 145.621 179.62 156.377 179.127C164.2 178.761 172.595 176.91 177.723 170.998C181.75 166.352 183.076 159.986 183.807 153.902C188.299 116.274 189.113 74.9085 178.413 43.4998" fill="#263238"/>
<path d="M127.297 157.627C127.374 157.586 126.955 156.879 126.537 155.47C125.989 153.478 125.873 151.392 126.195 149.351C126.683 146.325 127.813 143.439 129.508 140.886C131.388 137.985 134.112 135.262 137.101 132.579C140.09 129.897 143.067 127.415 145.466 124.827C147.63 122.563 149.431 119.978 150.807 117.164C151.726 115.259 152.297 113.204 152.493 111.098C152.534 110.527 152.534 109.954 152.493 109.382C152.493 108.987 152.446 108.793 152.416 108.793C152.239 108.746 152.711 112.212 150.341 116.952C148.929 119.675 147.123 122.176 144.982 124.374C142.624 126.902 139.636 129.349 136.623 132.037C133.611 134.725 130.864 137.514 128.96 140.52C127.237 143.161 126.121 146.15 125.694 149.274C125.411 151.381 125.612 153.524 126.283 155.541C126.471 156.084 126.708 156.609 126.991 157.109C127.068 157.295 127.171 157.47 127.297 157.627Z" fill="#455A64"/>
<path d="M150.353 225.02L147.287 263.544L239.385 263.998L214.349 228.793L150.353 225.02Z" fill="#263238"/>
<path d="M77.5433 132.362C77.8027 132.586 72.1493 162.751 69.2902 177.854C68.8127 180.381 69.0534 182.991 69.985 185.387C70.9166 187.784 72.5018 189.872 74.5604 191.412C76.6874 193.003 79.2297 193.943 81.8798 194.119C84.5299 194.294 87.1741 193.698 89.4925 192.403L127.84 172.448L116.097 147.86L91.9272 161.578L93.5188 135.999L77.5433 132.362Z" fill="#FFBE9D"/>
<path d="M90.636 108.374C90.3649 107.295 89.0031 106.806 87.9184 107.077C86.8607 107.448 85.9179 108.088 85.1831 108.934L82.0823 110.815C81.4972 111.203 81.0154 111.728 80.6785 112.344C80.3416 112.961 80.1598 113.65 80.1488 114.352C80.1334 115.753 80.3505 117.148 80.7913 118.478C81.1156 119.657 81.5754 120.995 82.7131 121.426C83.9805 121.897 85.3836 120.919 85.979 119.704C86.5744 118.49 86.6333 117.105 86.9457 115.79C87.3223 114.213 88.0678 112.749 89.121 111.516C89.9051 110.591 90.9367 109.553 90.636 108.374Z" fill="#EB996E"/>
<path d="M64.8748 109.589C64.7789 109.289 64.7585 108.969 64.8155 108.659C64.8724 108.348 65.0049 108.057 65.2013 107.81C65.3976 107.563 65.6518 107.368 65.9414 107.242C66.2309 107.117 66.5469 107.064 66.8615 107.09C73.1574 107.609 88.1131 109.701 96.9851 112.254C109.565 115.874 117.848 118.214 117.848 118.214L144.564 117.624C144.564 117.624 141.357 126.832 131.176 126.88C123.471 126.915 115.389 121.963 115.389 121.963C115.389 121.963 81.151 110.303 66.773 110.934C66.3531 110.952 65.9389 110.831 65.5954 110.589C65.2519 110.346 64.9984 109.997 64.8748 109.595V109.589Z" fill="#455A64"/>
<path d="M139.571 117.701C139.901 118.638 138.81 119.469 137.838 119.646C136.865 119.823 135.751 119.776 135.049 120.471C134.8 120.77 134.619 121.119 134.517 121.495C134.416 121.87 134.396 122.263 134.46 122.647C134.599 123.411 134.691 124.182 134.737 124.957C134.752 125.484 134.569 125.998 134.224 126.396C133.522 127.109 132.231 126.867 131.553 126.137C130.933 125.342 130.594 124.363 130.593 123.354C130.584 122.64 130.479 121.93 130.28 121.244C130.175 120.9 129.981 120.592 129.717 120.349C129.452 120.106 129.128 119.939 128.777 119.864C127.934 119.758 127.191 120.395 126.384 120.678C125.96 120.797 125.516 120.824 125.081 120.756C124.647 120.688 124.232 120.526 123.866 120.283C123.499 120.039 123.19 119.719 122.959 119.345C122.728 118.97 122.581 118.55 122.528 118.113L139.571 117.701Z" fill="#FF725E"/>
<path d="M74.5014 108.121C74.0824 108.354 73.6492 108.561 73.2044 108.74C71.0481 109.616 68.7136 109.963 66.3957 109.754C65.9179 109.715 65.4433 109.644 64.975 109.542C64.975 109.542 65.1106 109.542 65.3523 109.595C65.594 109.648 65.9418 109.671 66.3957 109.707C67.5479 109.799 68.707 109.76 69.8502 109.589C70.9919 109.417 72.111 109.118 73.1868 108.699C73.5994 108.534 73.9295 108.392 74.1535 108.28L74.5014 108.121Z" fill="#263238"/>
<path d="M86.2207 109.813H86.1087L85.7904 109.778C85.5133 109.742 85.1125 109.707 84.6114 109.678C83.315 109.6 82.014 109.667 80.7324 109.878C79.4521 110.096 78.199 110.452 76.995 110.939C76.5352 111.134 76.1638 111.299 75.9162 111.422L75.6274 111.558L75.5212 111.599C75.5212 111.599 75.5507 111.599 75.6156 111.534L75.8926 111.375C76.1402 111.24 76.4821 111.063 76.9655 110.862C78.1664 110.346 79.4252 109.975 80.7148 109.76C82.0042 109.548 83.3143 109.491 84.6173 109.589C85.1184 109.63 85.5192 109.683 85.7963 109.731L86.1146 109.79L86.2207 109.813Z" fill="#263238"/>
<path d="M94.9808 114.251L93.7487 113.886L92.3103 113.45C91.9986 113.38 91.7151 113.217 91.4968 112.984C91.4422 112.914 91.4056 112.832 91.3902 112.744C91.3748 112.657 91.381 112.567 91.4084 112.483C91.4405 112.395 91.4931 112.316 91.5617 112.253C91.6304 112.189 91.7132 112.143 91.8034 112.117C92.1876 112 92.5981 112 92.9824 112.117C93.3773 112.194 93.79 112.283 94.2085 112.4C95.1003 112.651 95.9666 112.985 96.7964 113.397C97.2327 113.615 97.6748 113.856 98.1051 114.128C98.3338 114.25 98.5345 114.419 98.6946 114.623C98.7357 114.68 98.7615 114.747 98.7697 114.817C98.778 114.887 98.7684 114.958 98.7418 115.024C98.6793 115.148 98.5749 115.246 98.4471 115.301C97.4135 115.699 96.2945 115.823 95.1989 115.66C92.9293 115.372 91.0134 114.281 89.3039 113.385C87.8147 112.503 86.198 111.857 84.5112 111.469C83.3685 111.228 82.184 111.273 81.0626 111.599C80.7595 111.694 80.4656 111.816 80.1842 111.964C79.9956 112.07 79.8954 112.117 79.8954 112.117L80.1371 111.946C80.4155 111.794 80.7076 111.668 81.0095 111.569C82.1367 111.232 83.3301 111.181 84.4817 111.422C86.1739 111.804 87.7965 112.447 89.2921 113.326C91.0075 114.222 92.9234 115.307 95.1871 115.596C96.2707 115.755 97.377 115.633 98.3999 115.242C98.5181 115.196 98.6148 115.108 98.6711 114.994C98.6919 114.937 98.699 114.876 98.6918 114.815C98.6846 114.755 98.6634 114.697 98.6298 114.646C98.4679 114.45 98.2672 114.29 98.0403 114.175C97.6196 113.908 97.1847 113.664 96.7375 113.444C95.9097 113.032 95.0453 112.699 94.1555 112.448C93.7428 112.33 93.3302 112.235 92.9352 112.153C92.5674 112.047 92.177 112.047 91.8093 112.153C91.7259 112.179 91.6493 112.223 91.5851 112.282C91.5209 112.341 91.4706 112.414 91.4379 112.495C91.4114 112.573 91.4046 112.656 91.4179 112.737C91.4313 112.818 91.4645 112.895 91.5145 112.96C91.7279 113.19 92.0051 113.35 92.3103 113.42L93.7487 113.862L94.9808 114.251Z" fill="#263238"/>
<path d="M101.194 113.716C101.3 113.897 101.372 114.097 101.406 114.305C101.502 114.787 101.443 115.286 101.235 115.732C101.017 116.172 100.667 116.532 100.233 116.763C100.05 116.862 99.8503 116.926 99.6437 116.952C99.8305 116.89 100.012 116.813 100.186 116.722C100.613 116.496 100.957 116.14 101.167 115.705C101.378 115.271 101.445 114.78 101.359 114.305C101.32 114.105 101.265 113.907 101.194 113.716Z" fill="#263238"/>
<path d="M112.041 116.551C112.041 116.551 111.451 116.551 110.532 116.492C109.612 116.433 108.315 116.297 106.889 116.28C105.682 116.236 104.479 116.436 103.352 116.869C103.148 116.943 102.951 117.034 102.762 117.14C102.62 117.208 102.486 117.291 102.361 117.388L102.025 117.612L102.344 117.37C102.467 117.268 102.601 117.181 102.745 117.111C102.933 117 103.13 116.905 103.334 116.828C104.475 116.384 105.695 116.183 106.918 116.238C108.351 116.238 109.63 116.409 110.561 116.474C111.027 116.51 111.404 116.539 111.664 116.551H112.041Z" fill="#263238"/>
<path d="M123.354 125.447C123.354 125.447 123.141 125.264 122.764 124.922C122.575 124.751 122.34 124.545 122.057 124.332C121.774 124.12 121.467 123.837 121.09 123.572C120.238 122.927 119.346 122.336 118.419 121.803C116.151 120.509 113.698 119.57 111.145 119.021C110.105 118.791 109.052 118.63 107.991 118.538C107.537 118.479 107.124 118.473 106.765 118.455C106.405 118.437 106.093 118.455 105.839 118.455H105.049H105.839C106.093 118.455 106.429 118.455 106.765 118.455C107.101 118.455 107.537 118.455 107.991 118.526C109.055 118.616 110.113 118.773 111.157 118.997C112.434 119.273 113.69 119.636 114.918 120.082C116.134 120.56 117.316 121.121 118.455 121.762C119.382 122.294 120.274 122.885 121.125 123.531C121.497 123.79 121.803 124.067 122.086 124.297C122.369 124.527 122.599 124.727 122.782 124.887C123.171 125.252 123.354 125.447 123.354 125.447Z" fill="#263238"/>
<path d="M131.082 125.647C130.895 125.749 130.697 125.83 130.492 125.889C129.945 126.055 129.372 126.125 128.801 126.095C127.952 126.041 127.121 125.825 126.354 125.458C125.423 124.997 124.565 124.401 123.807 123.69C122.988 122.947 122.275 122.181 121.615 121.497C121.037 120.874 120.425 120.283 119.781 119.728C119.347 119.36 118.886 119.025 118.402 118.726C118.231 118.626 118.095 118.543 118.001 118.496L117.865 118.431C118.569 118.771 119.225 119.201 119.817 119.711C120.461 120.258 121.077 120.839 121.662 121.45C122.328 122.133 123.041 122.9 123.855 123.637C124.608 124.346 125.459 124.941 126.384 125.405C127.144 125.773 127.969 125.989 128.812 126.042C129.379 126.08 129.947 126.018 130.492 125.859C130.642 125.817 130.788 125.764 130.929 125.7L131.082 125.647Z" fill="#263238"/>
<path d="M141.204 122.811H141.003C140.868 122.811 140.679 122.811 140.443 122.811C139.827 122.812 139.213 122.876 138.61 123C138.001 123.132 137.408 123.329 136.841 123.589C136.629 123.684 136.452 123.772 136.34 123.837C136.281 123.873 136.217 123.903 136.152 123.925C136.366 123.783 136.59 123.657 136.824 123.548C137.944 123.007 139.177 122.743 140.42 122.776C140.682 122.77 140.943 122.782 141.204 122.811Z" fill="#263238"/>
<path d="M67.6396 125.17L67.3566 119.658C67.3253 119.064 67.4888 118.476 67.8223 117.984L67.8577 117.931C68.8073 116.522 70.045 115.331 71.489 114.435L83.3675 107.072C83.5426 106.963 83.7416 106.899 83.9473 106.884C84.153 106.869 84.3592 106.905 84.548 106.988C84.7368 107.071 84.9024 107.199 85.0306 107.361C85.1587 107.522 85.2455 107.713 85.2834 107.915C85.4308 108.888 85.0005 111.105 84.1398 111.989C82.6129 113.379 80.9409 114.6 79.1526 115.632L91.0665 113.321C91.344 114.082 91.339 114.917 91.0522 115.675C90.7655 116.432 90.2161 117.061 89.5043 117.448L94.403 116.41C94.403 116.41 96.0065 118.691 93.8135 120.195C91.6206 121.698 87.724 123.001 87.724 123.001C87.724 123.001 93.8018 125.565 93.6603 127.611C93.5188 129.656 93.4363 136.212 93.4363 136.212L77.107 135.032L67.6396 125.17Z" fill="#FFBE9D"/>
<path d="M79.5829 115.272L79.4709 115.337L79.129 115.508C78.8342 115.661 78.4039 115.873 77.8851 116.15C77.3664 116.428 76.7769 116.805 76.1166 117.235C75.4564 117.666 74.7195 118.108 74.018 118.65C73.6747 118.913 73.3997 119.255 73.2163 119.646C73.0589 120.019 72.9864 120.421 73.004 120.825C73.0518 121.511 73.1824 122.188 73.3931 122.841C73.5285 123.291 73.6212 123.753 73.6702 124.221C73.6905 124.391 73.6905 124.563 73.6702 124.734C73.6702 124.734 73.6702 124.551 73.6289 124.221C73.5662 123.761 73.4637 123.307 73.3224 122.865C73.0953 122.206 72.9546 121.52 72.9038 120.825C72.8826 120.408 72.9551 119.991 73.116 119.605C73.3083 119.197 73.5929 118.84 73.9472 118.562C74.2967 118.292 74.6608 118.042 75.0378 117.813L76.0695 117.147C76.7238 116.722 77.3251 116.351 77.838 116.08C78.3508 115.809 78.7989 115.608 79.1054 115.49L79.4532 115.337L79.5829 115.272Z" fill="#EB996E"/>
<path d="M80.6912 127.645C80.6912 127.645 80.6381 127.587 80.5438 127.463L80.1371 126.938L79.4886 126.113C79.1932 125.751 78.9419 125.355 78.7399 124.934C78.517 124.356 78.469 123.725 78.6022 123.12C78.7353 122.515 79.0436 121.963 79.4886 121.532C80.0328 121.058 80.6524 120.677 81.322 120.406C81.994 120.088 82.7014 119.781 83.4324 119.481C85.9388 118.479 88.5136 117.657 91.1372 117.023C92.1394 116.769 92.9588 116.592 93.5247 116.474L94.1731 116.345L94.403 116.303C94.3297 116.329 94.2549 116.351 94.179 116.368L93.5306 116.522C92.9706 116.657 92.157 116.846 91.1726 117.111C88.5666 117.772 86.0066 118.603 83.509 119.599C82.7839 119.899 82.0765 120.188 81.4045 120.518C80.7452 120.785 80.1338 121.157 79.5947 121.621C79.1634 122.035 78.8631 122.568 78.7311 123.151C78.5991 123.735 78.6411 124.344 78.852 124.904C79.046 125.323 79.2873 125.719 79.5711 126.083C79.8069 126.396 80.0192 126.673 80.2078 126.92C80.3964 127.168 80.5085 127.333 80.5969 127.463C80.6853 127.592 80.6912 127.645 80.6912 127.645Z" fill="#EB996E"/>
<path d="M93.3302 120.324C93.2449 120.387 93.1542 120.442 93.059 120.489L92.2986 120.89C91.656 121.226 90.7599 121.674 89.7401 122.116C88.8707 122.493 87.9811 122.821 87.0756 123.1C86.7277 123.206 86.4448 123.283 86.2443 123.33C86.1444 123.362 86.0418 123.386 85.9378 123.401C86.0306 123.351 86.1297 123.313 86.2326 123.289L87.0461 123.018C87.7358 122.782 88.6731 122.428 89.6929 122.004C90.7128 121.579 91.6088 121.125 92.2632 120.825L93.0354 120.459C93.1289 120.404 93.2276 120.359 93.3302 120.324Z" fill="#EB996E"/>
<path d="M128.376 94.0325C128.376 94.0325 128.176 94.3037 127.91 94.852C127.545 95.6321 127.36 96.4843 127.368 97.3456C127.375 98.6241 127.827 99.8602 128.647 100.841C129.156 101.398 129.693 101.927 130.257 102.427C130.875 102.971 131.364 103.645 131.689 104.402C131.959 105.19 131.934 106.048 131.618 106.819C131.327 107.525 130.929 108.183 130.439 108.77C129.991 109.36 129.514 109.837 129.083 110.309C128.682 110.748 128.316 111.217 127.987 111.712C127.618 112.171 127.354 112.706 127.215 113.278C127.075 113.851 127.063 114.447 127.179 115.025C127.179 115.025 127.179 114.942 127.12 114.789C127.065 114.557 127.041 114.319 127.05 114.082C127.107 113.211 127.407 112.373 127.916 111.665C128.243 111.164 128.607 110.689 129.007 110.244C129.437 109.76 129.909 109.265 130.351 108.699C130.828 108.12 131.215 107.472 131.5 106.778C131.808 106.026 131.831 105.187 131.565 104.42C131.25 103.679 130.77 103.02 130.162 102.492C129.6 101.986 129.065 101.451 128.559 100.888C127.723 99.8889 127.27 98.6249 127.28 97.322C127.28 96.4487 127.481 95.5873 127.869 94.8048C128.009 94.5292 128.179 94.2702 128.376 94.0325Z" fill="#263238"/>
<path d="M133.782 93.7493C133.782 93.7493 133.581 94.0264 133.316 94.5746C132.953 95.3532 132.77 96.2034 132.78 97.0623C132.781 98.3438 133.234 99.5838 134.059 100.564C134.519 101.106 135.096 101.602 135.662 102.15C136.284 102.688 136.774 103.362 137.095 104.119C137.363 104.908 137.34 105.768 137.03 106.542C136.736 107.247 136.338 107.904 135.851 108.493C135.397 109.082 134.92 109.554 134.495 110.031C134.094 110.469 133.725 110.936 133.393 111.429C132.893 112.122 132.588 112.936 132.509 113.787C132.501 114.101 132.529 114.415 132.591 114.724C132.564 114.647 132.543 114.568 132.526 114.488C132.474 114.258 132.452 114.022 132.461 113.787C132.518 112.915 132.816 112.076 133.322 111.364C133.652 110.866 134.019 110.393 134.419 109.949C134.843 109.465 135.315 108.97 135.763 108.404C136.238 107.824 136.623 107.177 136.906 106.483C137.214 105.731 137.239 104.893 136.977 104.125C136.658 103.387 136.179 102.731 135.574 102.203C134.984 101.655 134.436 101.159 133.965 100.599C133.128 99.5977 132.675 98.3317 132.685 97.027C132.689 96.156 132.89 95.2971 133.275 94.5157C133.418 94.2438 133.588 93.987 133.782 93.7493Z" fill="#263238"/>
<path d="M91.4319 180.612C91.3965 180.612 91.5675 176.15 91.8151 170.65C92.0626 165.15 92.2867 160.693 92.3161 160.699C92.3456 160.705 92.1805 165.155 91.9389 170.655C91.6972 176.156 91.4614 180.612 91.4319 180.612Z" fill="#EB996E"/>
<path d="M81.1805 138.551C80.0552 137.47 78.9887 136.328 77.9854 135.132C79.1107 136.214 80.1773 137.355 81.1805 138.551Z" fill="#EB996E"/>
<path d="M149.999 223.758L145.201 263.997H212.186L201.027 235.377L216.383 231.734C216.383 231.734 215.351 228.851 214.361 228.786C213.371 228.721 149.999 223.758 149.999 223.758Z" fill="#455A64"/>
<path d="M115.607 146.834C115.607 146.834 141.587 130.009 148.419 127.716C152.622 126.307 165.244 126.083 165.244 126.083L141.587 166.511L128.14 173.055L115.607 146.834Z" fill="#FB3E01"/>
<path d="M245.835 175.106C237.9 155.947 225.061 134.301 221.258 130.593C217.456 126.885 194.141 123.89 194.141 123.89L163.569 127.209L139.058 160.811L149.793 213.212L149.427 213.907C148.625 215.453 148.256 217.187 148.36 218.926C148.463 220.664 149.036 222.342 150.017 223.782L214.367 228.816L214.45 179.197L245.835 175.106Z" fill="#FB3E01"/>
<path d="M205.566 203.19C205.474 203.341 205.369 203.483 205.253 203.615C205.029 203.88 204.729 204.293 204.28 204.794C203.055 206.194 201.725 207.498 200.301 208.696C195.589 212.682 190 215.495 183.992 216.905C177.983 218.315 171.726 218.282 165.733 216.808C163.924 216.367 162.151 215.792 160.427 215.087C159.838 214.845 159.354 214.609 159.036 214.497C158.873 214.429 158.715 214.348 158.565 214.255C158.735 214.305 158.903 214.366 159.066 214.438C159.39 214.562 159.85 214.78 160.469 214.998C167.058 217.557 174.212 218.308 181.189 217.174C188.166 216.04 194.714 213.062 200.154 208.549C201.584 207.372 202.932 206.098 204.186 204.735C204.646 204.263 204.958 203.862 205.2 203.609C205.312 203.461 205.434 203.321 205.566 203.19Z" fill="#263238"/>
<path d="M214.432 177.329C214.378 177.174 214.338 177.014 214.314 176.851L214.031 175.484C213.789 174.258 213.441 172.536 213.041 170.432C212.233 166.134 211.125 160.245 209.904 153.743C209.751 152.929 209.604 152.122 209.456 151.326C209.309 150.53 209.126 149.752 209.044 148.968C208.841 147.468 208.785 145.951 208.879 144.44C208.975 143.076 209.182 141.722 209.498 140.391C209.795 139.237 210.175 138.106 210.635 137.007C211.304 135.418 212.17 133.918 213.211 132.544C213.565 132.043 213.895 131.701 214.096 131.454C214.191 131.321 214.304 131.202 214.432 131.1C214.432 131.1 214.337 131.236 214.143 131.495C213.948 131.754 213.642 132.084 213.312 132.615C212.311 134.003 211.48 135.505 210.836 137.089C210.391 138.181 210.026 139.304 209.745 140.45C209.44 141.768 209.243 143.108 209.156 144.458C209.072 145.95 209.133 147.447 209.338 148.927C209.421 149.705 209.616 150.471 209.751 151.285C209.887 152.098 210.046 152.882 210.199 153.702C211.378 160.186 212.463 166.081 213.247 170.408C213.624 172.524 213.925 174.252 214.137 175.478L214.367 176.857C214.401 177.012 214.423 177.17 214.432 177.329Z" fill="#263238"/>
<path d="M142.218 176.203C142.12 175.923 142.047 175.635 142 175.343C141.882 174.724 141.723 173.922 141.528 172.985C141.145 170.98 140.632 168.198 140.084 165.126C139.535 162.055 139.058 159.267 138.728 157.251C138.575 156.278 138.445 155.482 138.351 154.857C138.294 154.566 138.26 154.27 138.25 153.973C138.349 154.253 138.422 154.541 138.468 154.834C138.586 155.423 138.746 156.249 138.94 157.192C139.323 159.202 139.836 161.984 140.384 165.056C140.933 168.127 141.41 170.91 141.74 172.932C141.894 173.898 142.023 174.7 142.118 175.325C142.174 175.615 142.208 175.908 142.218 176.203Z" fill="#263238"/>
<path d="M216.642 148.668C216.813 147.526 217.083 146.402 217.45 145.308C217.722 144.187 218.093 143.092 218.558 142.036C218.384 143.177 218.112 144.302 217.745 145.396C217.477 146.518 217.108 147.613 216.642 148.668Z" fill="#FAFAFA"/>
<path d="M220.091 160.492C219.185 160.085 218.324 159.586 217.521 159.001C216.663 158.492 215.857 157.9 215.116 157.232C216.88 158.144 218.547 159.232 220.091 160.481V160.492Z" fill="#FAFAFA"/>
<path d="M226.599 155.924C226.461 154.905 226.485 153.87 226.67 152.859C226.754 151.834 226.994 150.828 227.383 149.876C227.472 149.876 227.189 151.232 226.976 152.9C226.764 154.568 226.688 155.924 226.599 155.924Z" fill="#FAFAFA"/>
<path d="M227.902 167.36C227.499 166.467 227.152 165.55 226.864 164.613C226.474 163.713 226.137 162.789 225.856 161.849C226.418 162.665 226.854 163.561 227.147 164.507C227.537 165.416 227.792 166.378 227.902 167.36Z" fill="#FAFAFA"/>
<path d="M222.856 174.435C221.247 173.234 219.761 171.875 218.423 170.379C220.035 171.575 221.521 172.934 222.856 174.435Z" fill="#FAFAFA"/>
<path d="M238.307 166.181C238.372 166.246 237.446 167.272 236.538 168.699C235.63 170.125 235.029 171.381 234.947 171.345C235.209 170.331 235.661 169.375 236.279 168.528C236.805 167.628 237.492 166.832 238.307 166.181Z" fill="#FAFAFA"/>
<path d="M221.459 137.173C220.821 136.805 220.24 136.349 219.731 135.817C219.152 135.361 218.638 134.827 218.205 134.231C218.841 134.605 219.424 135.063 219.938 135.593C220.515 136.046 221.027 136.578 221.459 137.173Z" fill="#FAFAFA"/>
<path d="M202.453 137.632C201.035 138.702 199.501 139.608 197.879 140.332C198.553 139.755 199.293 139.258 200.083 138.853C200.824 138.356 201.619 137.947 202.453 137.632Z" fill="#FAFAFA"/>
<path d="M199.128 154.274C198.505 153.658 197.955 152.971 197.489 152.228C196.942 151.545 196.477 150.799 196.104 150.006C197.277 151.304 198.292 152.737 199.128 154.274Z" fill="#FAFAFA"/>
<path d="M206.326 159.697C205.65 161.507 204.557 163.132 203.137 164.442C203.072 164.377 203.886 163.393 204.758 162.084C205.631 160.776 206.244 159.65 206.326 159.697Z" fill="#FAFAFA"/>
<path d="M188.836 160.911C188.747 160.941 188.246 159.62 187.439 158.105C186.631 156.59 185.8 155.447 185.87 155.388C187.312 156.945 188.327 158.847 188.818 160.911H188.836Z" fill="#FAFAFA"/>
<path d="M192.485 172.23C192.811 171.267 193.234 170.338 193.746 169.459C194.163 168.531 194.674 167.648 195.273 166.824C194.946 167.789 194.526 168.719 194.017 169.601C193.597 170.527 193.083 171.408 192.485 172.23Z" fill="#FAFAFA"/>
<path d="M204.693 180.719C204.35 179.672 204.102 178.597 203.95 177.506C203.705 176.435 203.559 175.344 203.514 174.246C203.859 175.29 204.107 176.364 204.257 177.453C204.503 178.526 204.649 179.619 204.693 180.719Z" fill="#FAFAFA"/>
<path d="M182.522 174.499C181.767 173.892 181.056 173.232 180.394 172.524C179.66 171.889 178.966 171.208 178.319 170.485C179.165 170.975 179.936 171.587 180.606 172.3C181.345 172.94 181.99 173.68 182.522 174.499Z" fill="#FAFAFA"/>
<path d="M172.689 158.11C171.363 159.575 169.887 160.897 168.286 162.054C169.612 160.59 171.088 159.268 172.689 158.11Z" fill="#FAFAFA"/>
<path d="M168.822 153.337C168.168 152.613 167.591 151.822 167.101 150.979C166.528 150.182 166.038 149.328 165.639 148.432C166.869 149.959 167.936 151.611 168.822 153.36V153.337Z" fill="#FAFAFA"/>
<path d="M153.825 161.565C153.033 160.68 152.317 159.73 151.685 158.724C150.972 157.778 150.343 156.773 149.805 155.718C150.597 156.599 151.311 157.548 151.939 158.553C152.655 159.499 153.287 160.507 153.825 161.565Z" fill="#FAFAFA"/>
<path d="M158.264 171.405C158.264 171.493 156.33 171.523 153.955 171.647C151.579 171.77 149.657 171.924 149.645 171.835C150.049 171.706 150.467 171.627 150.889 171.599C151.667 171.499 152.746 171.399 153.937 171.34C155.128 171.281 156.212 171.275 156.996 171.293C157.422 171.275 157.848 171.313 158.264 171.405Z" fill="#FAFAFA"/>
<path d="M159.355 142.866C159.437 142.866 159.101 144.346 158.795 146.162C158.488 147.977 158.323 149.469 158.234 149.463C158.204 147.214 158.584 144.979 159.355 142.866Z" fill="#FAFAFA"/>
<path d="M153.383 134.219C154.047 133.163 154.796 132.164 155.623 131.23C156.37 130.23 157.198 129.294 158.099 128.43C157.434 129.485 156.685 130.485 155.859 131.419C155.112 132.418 154.283 133.355 153.383 134.219Z" fill="#FAFAFA"/>
<path d="M147.393 142.283C147.329 142.342 145.937 140.927 144.098 139.335C142.259 137.744 140.691 136.506 140.744 136.435C141.141 136.616 141.512 136.85 141.846 137.13C142.501 137.602 143.379 138.309 144.304 139.105C145.23 139.901 146.014 140.709 146.568 141.298C146.886 141.588 147.163 141.92 147.393 142.283Z" fill="#FAFAFA"/>
<path d="M137.425 145.089C137.466 145.171 135.715 146.108 133.776 147.582C131.837 149.056 130.457 150.483 130.386 150.418C130.619 150.046 130.903 149.709 131.229 149.416C131.963 148.665 132.751 147.969 133.587 147.335C134.426 146.7 135.311 146.128 136.234 145.625C136.604 145.39 137.005 145.21 137.425 145.089Z" fill="#FAFAFA"/>
<path d="M124.049 153.365C123.967 153.365 123.978 151.768 123.902 149.799C123.825 147.83 123.696 146.262 123.784 146.262C124.065 147.42 124.208 148.607 124.208 149.799C124.304 150.99 124.25 152.188 124.049 153.365Z" fill="#FAFAFA"/>
<path d="M133.912 162.09C132.014 160.733 130.238 159.212 128.606 157.545C129.581 158.182 130.499 158.904 131.347 159.703C132.274 160.417 133.132 161.217 133.912 162.09Z" fill="#FAFAFA"/>
<path d="M149.504 149.593C148.4 149.989 147.264 150.288 146.108 150.489C144.973 150.79 143.813 150.988 142.642 151.078C143.748 150.682 144.886 150.382 146.043 150.182C147.177 149.884 148.335 149.686 149.504 149.593Z" fill="#FAFAFA"/>
<path d="M180.081 153.637C179.554 153.303 179.084 152.885 178.69 152.399C178.219 151.983 177.821 151.491 177.511 150.943C178.038 151.281 178.508 151.701 178.902 152.187C179.372 152.603 179.77 153.093 180.081 153.637Z" fill="#FAFAFA"/>
<path d="M193.799 145.673C193.286 146.343 192.692 146.947 192.031 147.471C191.434 148.071 190.767 148.598 190.044 149.039C191.158 147.768 192.423 146.637 193.811 145.673H193.799Z" fill="#FAFAFA"/>
<path d="M205.53 148.921C205.448 148.921 205.79 147.565 206.12 145.896C206.45 144.228 206.556 142.855 206.645 142.86C206.73 143.896 206.655 144.938 206.421 145.949C206.278 146.98 205.978 147.982 205.53 148.921Z" fill="#FAFAFA"/>
<path d="M145.259 167.885C144.886 167.473 144.593 166.995 144.393 166.476C144.105 166.001 143.905 165.478 143.803 164.932C144.183 165.342 144.483 165.82 144.688 166.341C144.968 166.818 145.162 167.341 145.259 167.885Z" fill="#FAFAFA"/>
<path d="M166.381 168.71C166.004 168.103 165.713 167.446 165.515 166.759C165.22 166.105 165.022 165.412 164.925 164.702C165.303 165.308 165.593 165.965 165.786 166.653C166.084 167.306 166.285 167.999 166.381 168.71Z" fill="#FAFAFA"/>
<path d="M177.9 162.91C177.835 162.851 178.177 162.355 178.667 161.801C179.156 161.247 179.598 160.84 179.663 160.893C179.728 160.946 179.38 161.448 178.897 162.002C178.413 162.556 177.995 162.963 177.9 162.91Z" fill="#FAFAFA"/>
<path d="M154.232 199.83C153.639 199.014 153.192 198.1 152.911 197.13C152.539 196.192 152.339 195.193 152.322 194.183C152.41 194.183 152.681 195.48 153.218 197.03C153.754 198.581 154.314 199.783 154.232 199.83Z" fill="#FAFAFA"/>
<path d="M163.222 200.502C163.369 199.629 163.614 198.775 163.953 197.956C164.193 197.105 164.533 196.286 164.967 195.515C164.82 196.387 164.577 197.239 164.242 198.056C163.997 198.908 163.655 199.729 163.222 200.502Z" fill="#FAFAFA"/>
<path d="M160.598 210.718C160.032 209.972 159.549 209.166 159.16 208.313C158.676 207.506 158.28 206.648 157.981 205.755C158.544 206.504 159.025 207.313 159.413 208.166C159.896 208.973 160.293 209.829 160.598 210.718Z" fill="#FAFAFA"/>
<path d="M177.252 207.782C176.233 207.626 175.241 207.328 174.304 206.898C173.335 206.563 172.419 206.088 171.587 205.489C172.552 205.81 173.499 206.186 174.422 206.615C175.388 206.946 176.333 207.336 177.252 207.782Z" fill="#FAFAFA"/>
<path d="M171.864 201.723C171.822 201.646 172.866 200.969 174.045 200.002C175.224 199.035 176.108 198.157 176.173 198.233C175.053 199.744 173.571 200.948 171.864 201.735V201.723Z" fill="#FAFAFA"/>
<path d="M185.741 206.032C185.688 206.103 184.615 205.443 183.206 204.759C181.797 204.075 180.594 203.692 180.618 203.61C182.512 203.943 184.281 204.78 185.741 206.032Z" fill="#FAFAFA"/>
<path d="M188.7 211.573C188.641 211.509 189.449 210.683 190.339 209.569C191.229 208.455 191.854 207.488 191.931 207.535C191.621 208.356 191.161 209.111 190.575 209.764C190.069 210.479 189.433 211.093 188.7 211.573Z" fill="#FAFAFA"/>
<path d="M158.429 222.279C157.448 221.81 156.515 221.25 155.641 220.605C154.706 220.048 153.828 219.402 153.017 218.677C153.998 219.145 154.931 219.706 155.806 220.351C156.74 220.908 157.618 221.554 158.429 222.279Z" fill="#FAFAFA"/>
<path d="M169.706 219.496C169.742 219.578 168.527 220.115 167.154 221.011C165.78 221.907 164.796 222.779 164.731 222.732C166.04 221.193 167.769 220.068 169.706 219.496Z" fill="#FAFAFA"/>
<path d="M179.793 223.953C179.295 223.456 178.868 222.893 178.525 222.279C178.1 221.719 177.76 221.099 177.517 220.439C178.446 221.5 179.212 222.692 179.793 223.976V223.953Z" fill="#FAFAFA"/>
<path d="M191.948 219.938C191.984 220.021 190.84 220.563 189.543 221.406C188.246 222.249 187.273 223.057 187.185 222.992C187.788 222.249 188.524 221.623 189.354 221.147C190.134 220.583 191.015 220.173 191.948 219.938Z" fill="#FAFAFA"/>
<path d="M197.566 214.663C197.484 214.704 197.136 214.073 196.476 213.56C195.815 213.047 195.161 212.788 195.185 212.705C195.738 212.698 196.272 212.91 196.67 213.295C197.138 213.614 197.46 214.106 197.566 214.663Z" fill="#FAFAFA"/>
<path d="M203.933 220.734C203.315 221.223 202.638 221.631 201.917 221.948C201.239 222.351 200.515 222.668 199.759 222.892C200.374 222.399 201.052 221.991 201.775 221.677C202.45 221.27 203.175 220.953 203.933 220.734Z" fill="#FAFAFA"/>
<path d="M209.669 223.953C209.58 223.953 209.904 222.603 210.117 220.941C210.329 219.278 210.352 217.905 210.447 217.905C210.609 218.923 210.599 219.961 210.417 220.976C210.338 222.004 210.085 223.01 209.669 223.953Z" fill="#FAFAFA"/>
<path d="M208.761 213.719C208.708 213.795 207.517 212.988 205.884 212.345C204.251 211.703 202.836 211.473 202.848 211.378C203.934 211.385 205.006 211.618 205.996 212.062C207.025 212.411 207.968 212.976 208.761 213.719Z" fill="#FAFAFA"/>
<path d="M195.98 182.858C194.213 181.953 192.544 180.869 190.999 179.622C192.764 180.531 194.433 181.615 195.98 182.858Z" fill="#FAFAFA"/>
<g opacity="0.3">
<path d="M166.081 216.937C165.892 216.569 165.835 216.148 165.917 215.743C166 215.338 166.217 214.974 166.535 214.709C167.188 214.198 167.977 213.888 168.804 213.819C173.025 213.158 177.547 214.302 181.502 212.693C184.155 211.608 186.218 209.397 187.774 207.004C189.331 204.611 190.563 201.993 192.101 199.576C193.481 197.401 195.243 195.326 197.649 194.394C200.054 193.463 203.184 194.058 204.487 196.281C205.79 198.503 204.917 201.233 203.697 203.426C200.248 209.615 194.035 213.995 187.262 216.082C180.488 218.169 173.196 218.116 166.204 216.878" fill="black"/>
</g>
<path d="M249.672 198.705L243.094 175.231L216.012 178.732L219.183 191.182L178.679 180.377L169.742 192.238L231.227 221.271C234.045 222.472 237.163 222.785 240.164 222.168C243.165 221.551 245.906 220.033 248.022 217.816C251.795 213.831 251.341 203.945 249.672 198.705Z" fill="#FFBE9D"/>
<path d="M137.732 176.203C136.824 175.961 135.727 175.767 135.055 176.415C134.79 176.728 134.634 177.119 134.61 177.528C134.587 177.938 134.697 178.344 134.926 178.685C135.344 179.386 135.662 179.486 136.771 179.864L147.553 182.31L151.679 179.08L137.732 176.203Z" fill="#EB996E"/>
<path d="M171.386 192.804C158.211 189.579 145.985 185.317 132.968 182.841C132.32 182.717 131.589 182.546 131.247 181.975C130.781 181.196 131.383 180.141 132.214 179.787C133.082 179.519 134.006 179.488 134.89 179.699C141.855 180.668 148.934 180.428 155.817 178.992C160.28 178.054 164.66 176.634 169.164 176.044C173.668 175.455 174.882 177.813 178.678 180.348" fill="#FFBE9D"/>
<path d="M178.678 180.377C177.582 178.454 175.988 176.862 174.064 175.769C172.139 174.675 169.956 174.121 167.743 174.163C165.049 174.252 162.473 175.23 159.873 175.932C157.274 176.633 154.432 177.07 151.921 176.079C150.96 175.702 150.064 175.118 149.038 174.977C148.012 174.835 146.786 175.336 146.604 176.35C146.462 177.117 146.957 177.848 147.494 178.42C149.38 180.412 155.387 182.629 160.121 182.393" fill="#FFBE9D"/>
<path d="M160.121 182.399C160.121 182.351 159.396 182.399 158.111 182.269C156.303 182.078 154.523 181.683 152.805 181.09C151.612 180.694 150.46 180.181 149.368 179.557C148.766 179.224 148.21 178.812 147.718 178.331C147.455 178.107 147.24 177.832 147.086 177.523C146.932 177.214 146.842 176.878 146.822 176.533C146.885 176.189 147.059 175.875 147.318 175.64C147.577 175.404 147.906 175.261 148.254 175.23C149.03 175.141 149.814 175.3 150.494 175.684C151.263 176.083 152.071 176.401 152.905 176.633C153.777 176.841 154.674 176.928 155.57 176.893C159.219 176.769 162.361 175.254 165.344 174.682C166.745 174.365 168.191 174.289 169.618 174.458C170.858 174.623 172.066 174.975 173.202 175.501C174.855 176.269 176.323 177.385 177.505 178.773C178.331 179.763 178.684 180.406 178.684 180.382C178.63 180.215 178.553 180.056 178.454 179.911C178.215 179.469 177.934 179.051 177.617 178.661C176.469 177.195 174.999 176.012 173.32 175.207C172.159 174.643 170.918 174.263 169.641 174.081C168.174 173.888 166.684 173.95 165.238 174.263C162.184 174.853 159.048 176.315 155.535 176.433C154.678 176.464 153.822 176.381 152.988 176.185C152.182 175.961 151.402 175.655 150.659 175.271C149.893 174.854 149.014 174.689 148.148 174.8C147.714 174.874 147.307 175.061 146.969 175.342C146.797 175.49 146.657 175.67 146.556 175.872C146.454 176.075 146.395 176.295 146.38 176.521C146.397 176.926 146.497 177.323 146.675 177.687C146.852 178.051 147.103 178.375 147.411 178.638C147.938 179.142 148.534 179.571 149.18 179.911C150.304 180.535 151.489 181.043 152.717 181.426C154.474 182 156.296 182.354 158.14 182.481C158.641 182.511 159.143 182.511 159.643 182.481C159.805 182.473 159.966 182.445 160.121 182.399Z" fill="#EB996E"/>
<path d="M231.244 194.926C231.244 194.926 231.197 194.926 231.109 194.884L230.726 194.749L229.334 194.242C228.155 193.817 226.517 193.257 224.695 192.685C222.873 192.114 221.205 191.642 219.979 191.324L218.547 190.952L218.152 190.852C218.063 190.852 218.016 190.811 218.022 190.805H218.157L218.558 190.882C218.9 190.952 219.395 191.064 220.003 191.212C221.223 191.518 222.891 191.972 224.719 192.544C226.546 193.116 228.179 193.694 229.352 194.136C229.942 194.36 230.407 194.548 230.732 194.684L231.103 194.843L231.244 194.926Z" fill="#EB996E"/>
<path d="M180.353 146.51C184.065 146.35 187.572 144.763 190.143 142.08C192.713 139.396 194.147 135.824 194.147 132.108V115.013L195.09 60.3893L193.87 57.3121L165.102 48.2337C156.26 47.544 150.317 59.7054 150.005 68.5716C149.657 78.4281 149.622 90.4716 150.99 97.7756C153.737 112.466 165.102 114.034 165.102 114.034L165.326 132.309C165.353 134.236 165.766 136.139 166.541 137.904C167.316 139.669 168.437 141.261 169.838 142.585C171.239 143.909 172.892 144.939 174.698 145.613C176.504 146.287 178.427 146.592 180.353 146.51Z" fill="#FFBE9D"/>
<path d="M153.825 78.1508C153.834 78.645 154.036 79.1162 154.387 79.4641C154.738 79.8119 155.211 80.0091 155.705 80.0136C155.947 80.0247 156.189 79.9875 156.416 79.9042C156.643 79.8209 156.851 79.6933 157.028 79.5286C157.206 79.364 157.348 79.1657 157.448 78.9453C157.548 78.725 157.603 78.4869 157.61 78.2451C157.599 77.7519 157.397 77.2822 157.046 76.9356C156.695 76.589 156.222 76.3926 155.729 76.3882C155.487 76.3755 155.246 76.4114 155.018 76.4937C154.791 76.576 154.582 76.703 154.405 76.8674C154.227 77.0317 154.084 77.2299 153.985 77.4504C153.885 77.6708 153.831 77.909 153.825 78.1508Z" fill="#263238"/>
<path d="M152.782 74.6669C153.023 74.9086 154.432 73.8062 156.466 73.7532C158.5 73.7001 160.003 74.6787 160.239 74.4252C160.345 74.3132 160.091 73.8711 159.425 73.4172C158.529 72.8295 157.472 72.5349 156.401 72.5742C155.334 72.5941 154.3 72.9556 153.454 73.6058C152.864 74.1069 152.646 74.5608 152.782 74.6669Z" fill="#263238"/>
<path d="M173.567 78.1508C173.577 78.644 173.777 79.1143 174.127 79.462C174.477 79.8097 174.949 80.0076 175.442 80.0136C175.684 80.0263 175.926 79.9902 176.154 79.9076C176.382 79.8249 176.591 79.6973 176.768 79.5324C176.946 79.3674 177.089 79.1685 177.188 78.9474C177.287 78.7262 177.341 78.4874 177.346 78.2451C177.338 77.752 177.138 77.2814 176.788 76.9344C176.437 76.5873 175.965 76.3912 175.472 76.3882C175.23 76.3755 174.988 76.4114 174.761 76.4937C174.533 76.576 174.325 76.703 174.147 76.8674C173.97 77.0317 173.827 77.2299 173.727 77.4504C173.628 77.6708 173.573 77.909 173.567 78.1508Z" fill="#263238"/>
<path d="M172.813 74.4962C173.055 74.732 174.463 73.6355 176.497 73.5824C178.531 73.5294 180.034 74.508 180.27 74.2545C180.37 74.1425 180.123 73.7003 179.457 73.2464C178.56 72.6595 177.503 72.3649 176.432 72.4034C175.365 72.4233 174.332 72.7849 173.485 73.4351C172.895 73.9361 172.689 74.3842 172.813 74.4962Z" fill="#263238"/>
<path d="M165.839 89.7993C165.839 89.6873 164.572 89.4987 162.514 89.2924C161.995 89.257 161.5 89.1686 161.4 88.8149C161.34 88.2788 161.448 87.7375 161.707 87.2645C162.161 85.9911 162.632 84.6589 163.133 83.2617C165.114 77.5612 166.535 72.8865 166.305 72.804C166.075 72.7214 164.277 77.2842 162.302 82.9788L160.934 87.0051C160.758 87.5946 160.433 88.2784 160.722 89.0507C160.802 89.2329 160.923 89.3941 161.075 89.522C161.227 89.6498 161.407 89.7407 161.601 89.7875C161.889 89.8604 162.187 89.8941 162.485 89.8878C164.554 89.9408 165.833 89.9172 165.839 89.7993Z" fill="#263238"/>
<path d="M165.096 113.939C172.048 113.853 178.84 111.839 184.715 108.121C184.715 108.121 180.199 118.39 165.391 117.417L165.096 113.939Z" fill="#EB996E"/>
<path d="M172.064 66.5555C172.282 67.1037 174.31 66.7854 176.704 67.0094C179.097 67.2334 181.054 67.8288 181.361 67.3219C181.49 67.0802 181.143 66.5673 180.347 66.0544C179.29 65.4255 178.103 65.0456 176.878 64.9434C175.652 64.8413 174.419 65.0196 173.273 65.4649C172.4 65.8186 171.976 66.2666 172.064 66.5555Z" fill="#263238"/>
<path d="M153.371 68.7483C153.743 69.2022 155.14 68.6835 156.82 68.6127C158.5 68.542 159.944 68.8426 160.257 68.3474C160.392 68.1057 160.156 67.6518 159.52 67.2333C158.674 66.7139 157.686 66.4746 156.696 66.5495C155.706 66.5953 154.754 66.9476 153.972 67.5575C153.389 68.0468 153.236 68.5302 153.371 68.7483Z" fill="#263238"/>
<path d="M160.027 49.2415C160.711 53.8604 162.541 58.2344 165.35 61.9641C168.159 65.6939 171.858 68.6605 176.108 70.5933C175.853 69.4143 175.601 68.2353 175.354 67.0563C178.997 73.081 186.731 78.1271 191.707 80.1668C193.245 80.7976 195.214 80.2317 196.611 79.3356C198.568 78.0859 198.686 75.2798 198.274 72.9926C196.994 65.836 192.75 59.434 187.22 54.718C181.691 50.0019 174.947 46.854 167.973 44.7436C166.128 44.1835 165.12 43.8003 163.292 44.4193C161.465 45.0383 159.072 47.1193 159.956 48.8288" fill="#263238"/>
<path d="M189.372 69.3261C193.593 84.4468 188.01 101.254 189.449 116.887C189.767 120.371 191.035 124.403 193.97 126.319C195.42 127.262 195.739 126.667 197.407 126.997C201.669 127.822 205.695 126.036 209.952 126.862C213.795 127.61 219.908 129.809 222.331 126.726C224.754 123.643 221.96 120.017 219.59 116.999C217.22 113.981 214.037 111.399 212.87 107.738C211.608 103.806 212.97 99.5853 213.559 95.4941C215.576 81.5288 210.612 67.3807 202.359 55.9266C199.482 51.9357 195.143 48.157 191.241 45.1564C187.338 42.1558 178.513 39.6269 173.597 39.8509C168.681 40.0749 160.492 43.9774 158.488 49.4893" fill="#263238"/>
<path d="M173.049 60.6957C173.019 60.7487 173.343 60.9668 173.968 61.3264L175.082 61.9749L174.133 61.0671C171.823 58.9164 169.85 56.4303 168.28 53.6924C165.332 48.6167 164.884 43.7533 164.648 43.8123C164.572 43.8123 164.572 45.0267 164.961 46.9426C165.487 49.4267 166.398 51.8134 167.661 54.0166C169.23 56.843 171.365 59.3154 173.933 61.2793L174.104 61.0199C173.438 60.7723 173.072 60.6603 173.049 60.6957Z" fill="#455A64"/>
<path d="M199.806 123.607C199.835 123.283 199.835 122.958 199.806 122.634C199.806 121.998 199.806 121.06 199.836 119.852C200.032 116.45 200.533 113.072 201.333 109.76C202.241 105.539 203.744 100.593 204.646 94.8982C205.114 91.914 205.258 88.8881 205.076 85.8729C204.918 82.5983 204.098 79.3897 202.665 76.4408C201.174 73.5145 198.991 70.997 196.305 69.1074C193.77 67.2269 191.123 65.7767 188.706 64.2676C184.403 61.6205 180.443 58.4525 176.916 54.8355C174.551 52.3869 172.382 49.7554 170.431 46.9657C169.742 45.9753 169.217 45.1972 168.869 44.6607C168.701 44.3771 168.504 44.1123 168.28 43.8708C168.403 44.1724 168.553 44.4624 168.728 44.7374C169.028 45.3269 169.523 46.105 170.178 47.0954C172.06 49.9641 174.193 52.6607 176.55 55.1539C180.052 58.863 184.014 62.1081 188.34 64.8099C190.769 66.3426 193.398 67.8046 195.868 69.6498C198.459 71.4755 200.566 73.9031 202.011 76.7238C203.398 79.582 204.2 82.6886 204.369 85.8611C204.553 88.8276 204.425 91.8053 203.986 94.7449C203.131 100.369 201.675 105.356 200.826 109.595C200.062 112.941 199.634 116.355 199.547 119.787C199.532 120.72 199.567 121.652 199.653 122.581C199.663 122.928 199.715 123.272 199.806 123.607Z" fill="#455A64"/>
<path d="M149.993 56.269C149.469 60.0822 149.162 63.9221 149.074 67.7702C152.056 65.365 155.069 62.9068 157.327 59.8001C159.584 56.6935 160.993 52.8086 160.404 49.0181C158.244 49.6534 156.289 50.8467 154.737 52.4776C153.184 54.1086 152.089 56.1198 151.561 58.3087" fill="#263238"/>
<path d="M165.196 96.7081C165.703 95.7178 165.839 95.4643 166.7 94.9927C167.352 94.8279 168.026 94.7603 168.698 94.7922C169.352 94.8276 169.789 95.4761 170.03 96.0832C170.426 96.9612 170.482 97.9543 170.19 98.8716C169.848 99.7618 166.759 100.829 165.096 98.4884" fill="#EB996E"/>
<path d="M167.737 100.04C167.906 100.029 168.075 100.029 168.244 100.04C168.692 100.018 169.123 99.8645 169.482 99.5976C169.972 99.1532 170.287 98.5494 170.372 97.8939C170.441 97.5041 170.411 97.1033 170.284 96.7283C170.158 96.3533 169.939 96.0162 169.647 95.7481C169.01 95.2478 168.217 94.987 167.407 95.0112C167.082 95.0238 166.762 95.1055 166.471 95.2508C166.179 95.3962 165.921 95.6018 165.715 95.8542C165.441 96.2104 165.26 96.6301 165.191 97.0745C165.178 97.2445 165.147 97.4126 165.096 97.5756C165.048 97.407 165.038 97.2298 165.067 97.0568C165.099 96.5771 165.265 96.1158 165.544 95.7245C165.746 95.456 165.998 95.2297 166.287 95.0584C166.625 94.8612 167.005 94.7479 167.395 94.7283C167.818 94.7121 168.24 94.7659 168.645 94.8874C169.08 95.0075 169.483 95.223 169.824 95.5182C170.183 95.8282 170.44 96.2391 170.561 96.6972C170.682 97.1087 170.704 97.543 170.626 97.9647C170.552 98.3375 170.423 98.6971 170.243 99.0317C170.056 99.4002 169.764 99.7053 169.404 99.9088C169.045 100.112 168.633 100.205 168.221 100.175C168.051 100.17 167.885 100.124 167.737 100.04Z" fill="#263238"/>
<path d="M174.746 85.0009C174.8 85.0658 174.605 85.2898 174.263 85.331C173.921 85.3723 173.674 85.1896 173.721 85.1188C173.768 85.0481 173.98 85.054 174.228 85.0245C174.475 84.995 174.693 84.9302 174.746 85.0009Z" fill="#EB996E"/>
<path d="M177.995 84.8301C177.912 84.8301 177.8 84.671 177.753 84.4411C177.706 84.2112 177.723 84.0048 177.806 83.9872C177.889 83.9695 178.001 84.1404 178.054 84.3762C178.107 84.612 178.101 84.8301 177.995 84.8301Z" fill="#EB996E"/>
<path d="M181.938 83.5213C181.938 83.6038 181.714 83.6274 181.484 83.5803C181.255 83.5331 181.078 83.4152 181.095 83.3327C181.113 83.2501 181.319 83.2265 181.549 83.2796C181.779 83.3327 181.956 83.4388 181.938 83.5213Z" fill="#EB996E"/>
<path d="M176.432 88.2784C176.35 88.2784 176.279 88.0897 176.279 87.8598C176.279 87.6299 176.35 87.4413 176.432 87.4413C176.515 87.4413 176.586 87.624 176.586 87.8598C176.586 88.0956 176.515 88.2784 176.432 88.2784Z" fill="#EB996E"/>
<path d="M179.975 86.6929C179.893 86.6929 179.822 86.6517 179.822 86.5986C179.822 86.5455 179.893 86.5043 179.975 86.5043C180.058 86.5043 180.129 86.5455 180.129 86.5986C180.129 86.6517 180.064 86.6929 179.975 86.6929Z" fill="#EB996E"/>
<path d="M154.603 85.5729C154.603 85.6554 154.308 85.7144 154.014 85.5729C153.719 85.4314 153.536 85.1661 153.601 85.1131C153.666 85.06 153.878 85.1779 154.137 85.2958C154.397 85.4137 154.609 85.4845 154.603 85.5729Z" fill="#EB996E"/>
<path d="M157.238 85.0186C157.195 85.0026 157.159 84.9702 157.139 84.9283C157.119 84.8864 157.117 84.8384 157.132 84.7946C157.162 84.6944 157.244 84.6236 157.327 84.6472C157.37 84.6632 157.406 84.6956 157.425 84.7375C157.445 84.7794 157.448 84.8274 157.433 84.8712C157.43 84.8938 157.422 84.9155 157.411 84.9352C157.4 84.9548 157.384 84.972 157.366 84.9858C157.348 84.9995 157.328 85.0094 157.306 85.0151C157.284 85.0207 157.261 85.0219 157.238 85.0186Z" fill="#EB996E"/>
<path d="M155.829 88.8389C155.747 88.8389 155.658 88.7092 155.635 88.5324C155.611 88.3555 155.635 88.1963 155.741 88.1846C155.847 88.1728 155.912 88.3084 155.941 88.4911C155.971 88.6738 155.918 88.8271 155.829 88.8389Z" fill="#EB996E"/>
<path d="M152.363 88.6504C152.292 88.6033 152.322 88.4441 152.422 88.2849C152.522 88.1258 152.67 88.0432 152.74 88.0904C152.811 88.1375 152.782 88.3026 152.681 88.4559C152.581 88.6091 152.434 88.6976 152.363 88.6504Z" fill="#EB996E"/>
<path d="M139.146 220.598V247.951C139.146 250.248 138.597 252.512 137.547 254.554C136.496 256.597 134.973 258.359 133.104 259.694C130.657 261.44 127.727 262.377 124.721 262.377H88.172C85.4354 262.379 82.7548 261.602 80.4436 260.136L79.1821 259.323C77.1311 258.024 75.4411 256.228 74.2685 254.102C73.0958 251.977 72.4785 249.589 72.4735 247.162V220.598H139.146Z" fill="#263238"/>
<path d="M72.4736 227.184H53.9455V230.402L64.645 232.047C66.2102 232.265 67.6947 232.876 68.9604 233.822C70.2261 234.768 71.2319 236.019 71.8841 237.459C72.2592 238.296 72.4598 239.2 72.4736 240.118C72.4736 240.118 76.2464 240.059 76.889 235.549C76.889 235.46 76.9184 235.372 76.9302 235.284C77.1429 233.654 76.8364 231.998 76.0543 230.553C75.2722 229.107 74.0544 227.945 72.5738 227.231L72.4736 227.184Z" fill="#455A64"/>
<path d="M139.147 227.207H157.686V230.438L146.987 232.082C145.417 232.299 143.927 232.911 142.658 233.86C141.388 234.81 140.381 236.066 139.73 237.512C139.355 238.349 139.154 239.253 139.141 240.17C139.141 240.17 135.374 240.111 134.725 235.608L134.69 235.336C134.477 233.707 134.784 232.051 135.566 230.606C136.348 229.16 137.566 227.998 139.046 227.284L139.147 227.207Z" fill="#455A64"/>
<path d="M139.146 227.208C139.061 227.272 138.97 227.329 138.875 227.379C138.606 227.523 138.346 227.685 138.097 227.862C137.149 228.525 136.358 229.388 135.78 230.391C134.878 231.938 134.546 233.753 134.843 235.52C134.966 236.599 135.393 237.622 136.075 238.467C136.858 239.365 137.964 239.918 139.152 240.006L139.011 240.141C139.026 239.051 139.294 237.98 139.795 237.011C140.301 235.975 141.009 235.049 141.876 234.288C142.787 233.484 143.841 232.858 144.982 232.442C146.164 232.057 147.383 231.798 148.62 231.67L157.68 230.285L157.557 230.426C157.557 229.324 157.557 228.251 157.557 227.208L157.698 227.349L144.346 227.296L140.532 227.255H139.512C139.394 227.268 139.276 227.268 139.158 227.255H139.506H140.514L144.316 227.214L157.698 227.16H157.84V227.302C157.84 228.345 157.84 229.418 157.84 230.521V230.65H157.716L148.655 232.047C147.439 232.175 146.24 232.43 145.077 232.808C143.977 233.204 142.961 233.804 142.082 234.576C141.256 235.273 140.582 236.133 140.102 237.101C139.623 238.07 139.347 239.127 139.294 240.206V240.354H139.158C138.531 240.309 137.919 240.14 137.358 239.855C136.797 239.571 136.299 239.177 135.892 238.697C135.186 237.815 134.748 236.749 134.631 235.626C134.343 233.811 134.704 231.954 135.651 230.379C136.25 229.366 137.075 228.505 138.062 227.862C138.32 227.692 138.59 227.54 138.869 227.408C138.955 227.332 139.048 227.265 139.146 227.208Z" fill="#263238"/>
<path d="M137.956 221.331C137.909 221.367 137.857 221.397 137.802 221.419L137.343 221.649L135.574 222.516L134.283 223.135C133.806 223.353 133.269 223.553 132.703 223.783C131.565 224.231 130.292 224.803 128.818 225.251L126.525 226.017C125.724 226.277 124.869 226.471 123.996 226.713C122.257 227.226 120.353 227.573 118.361 227.986C114.005 228.74 109.594 229.135 105.173 229.165C100.753 229.137 96.3418 228.743 91.9862 227.986C89.9937 227.579 88.0896 227.226 86.3506 226.719C85.4781 226.471 84.6233 226.277 83.8216 226.017L81.5284 225.257C80.0547 224.809 78.7814 224.237 77.6377 223.795C77.0482 223.559 76.5412 223.359 76.0637 223.146L74.7727 222.527L73.0042 221.661L72.5444 221.431L72.397 221.342C72.4549 221.353 72.5106 221.373 72.5621 221.401L73.0337 221.602C73.464 221.802 74.0712 222.073 74.8376 222.415L76.1404 223.005C76.6179 223.211 77.1543 223.4 77.7202 223.63C78.8639 224.054 80.1372 224.614 81.6169 225.045L83.91 225.787C84.7059 226.041 85.5606 226.229 86.4272 226.465C88.1663 226.966 90.0645 227.302 92.057 227.703C96.3963 228.448 100.789 228.842 105.191 228.882C109.594 228.842 113.986 228.448 118.325 227.703C120.318 227.302 122.216 226.96 123.955 226.459C124.822 226.224 125.676 226.035 126.472 225.781L128.765 225.039C130.239 224.608 131.518 224.048 132.656 223.618C133.246 223.394 133.758 223.199 134.242 222.999L135.539 222.409L137.319 221.596L137.791 221.39L137.956 221.331Z" fill="#455A64"/>
<path d="M137.997 223.594C137.997 223.594 137.95 223.629 137.844 223.682L137.384 223.918L135.615 224.784L134.324 225.374C133.847 225.586 133.31 225.786 132.75 226.022C131.607 226.47 130.333 227.042 128.86 227.49L126.566 228.251C125.765 228.51 124.916 228.705 124.043 228.952C122.275 229.465 120.394 229.813 118.402 230.225C114.048 230.979 109.639 231.374 105.22 231.404C100.8 231.374 96.3892 230.98 92.0333 230.225C90.0348 229.813 88.1308 229.465 86.3917 228.952C85.5193 228.71 84.6645 228.516 83.8628 228.256L81.5696 227.496C80.0958 227.048 78.8225 226.476 77.6848 226.028C77.0952 225.798 76.5824 225.598 76.1049 225.38L74.8316 224.796L73.063 223.93L72.6032 223.7C72.4971 223.647 72.4441 223.617 72.45 223.611L72.615 223.67L73.0866 223.876L74.8905 224.69L76.1933 225.279C76.6767 225.48 77.2073 225.674 77.7791 225.898C78.9168 226.329 80.196 226.883 81.6698 227.319L83.963 228.056C84.7588 228.31 85.6136 228.498 86.486 228.734C88.2192 229.235 90.1233 229.577 92.1099 229.978C96.4512 230.722 100.845 231.117 105.25 231.157C109.653 231.119 114.045 230.725 118.384 229.978C120.371 229.577 122.269 229.241 124.008 228.74C124.874 228.504 125.729 228.315 126.531 228.062L128.818 227.319C130.298 226.883 131.571 226.329 132.715 225.898C133.304 225.674 133.817 225.48 134.295 225.274L135.598 224.684L137.401 223.871L137.873 223.67L137.997 223.594Z" fill="#455A64"/>
<path d="M125.423 263.226C130.286 262.472 132.786 259.819 134.201 255.103C134.72 253.648 134.759 252.066 134.313 250.587C133.794 249.149 132.414 247.94 130.882 247.999C129.031 248.076 127.71 249.827 126.956 251.536C126.201 253.246 125.641 255.138 124.185 256.288C122.729 257.437 119.999 257.095 119.687 255.262C119.684 254.777 119.632 254.293 119.534 253.818C119.121 252.71 117.364 252.768 116.586 253.67C115.808 254.572 115.784 255.869 115.82 257.054C115.855 258.239 115.896 259.512 115.23 260.497C114.246 261.965 112.188 262.13 110.42 262.142L99.9739 262.242C99.9739 262.242 101.742 263.108 106.423 263.108C112.778 263.091 125.423 263.226 125.423 263.226Z" fill="#FF725E"/>
<path d="M105.221 262.223C101.725 262.282 98.0168 262.288 95.0339 260.455C93.1475 259.305 91.5677 257.454 89.3865 257.124C88.7609 256.994 88.1093 257.108 87.5649 257.443C87.2996 257.614 87.1021 257.873 87.0064 258.174C86.9106 258.475 86.9226 258.8 87.0403 259.093C86.0735 258.728 85.3366 257.955 84.5054 257.325C83.6742 256.694 82.5954 256.24 81.6286 256.611C81.1359 256.849 80.7411 257.251 80.512 257.748C80.283 258.245 80.2338 258.806 80.373 259.335C80.5379 259.856 80.8119 260.336 81.1769 260.742C81.5418 261.149 81.9892 261.473 82.4893 261.693C83.4936 262.129 84.556 262.417 85.6431 262.548L110.797 263.025C110.791 262.389 105.221 262.223 105.221 262.223Z" fill="#FF725E"/>
<path d="M85.59 263.998L85.6431 262.612L125.423 263.225V263.998H85.59Z" fill="#455A64"/>
<path d="M122.882 247.952C122.412 247.164 122.146 246.27 122.109 245.353C122.072 244.436 122.264 243.524 122.67 242.7C123.029 241.987 123.766 241.279 124.527 241.521C125.287 241.763 125.44 242.7 125.423 243.454C125.382 245.099 124.197 248.424 122.882 247.941" fill="#FF725E"/>
<path d="M99.5908 198.604C99.6262 198.604 99.5554 198.887 99.5908 199.394C99.659 200.109 99.8484 200.807 100.151 201.458C100.63 202.433 101.004 203.456 101.265 204.511C101.45 205.869 101.108 207.247 100.31 208.361C99.5554 209.569 98.6535 210.565 98.064 211.609C97.7767 212.095 97.5528 212.616 97.3978 213.159C97.2788 213.631 97.2449 214.12 97.2976 214.604C97.3563 215.315 97.6533 215.986 98.1406 216.508C98.3375 216.68 98.5442 216.842 98.7596 216.991C98.7596 216.991 98.6889 216.991 98.5592 216.926C98.3784 216.839 98.2099 216.728 98.0581 216.596C97.5113 216.077 97.1648 215.382 97.0795 214.633C97.0067 214.12 97.0327 213.598 97.1561 213.094C97.3037 212.521 97.5277 211.97 97.8223 211.456C98.4118 210.377 99.3196 209.363 100.051 208.184C100.812 207.133 101.148 205.835 100.994 204.547C100.743 203.51 100.395 202.5 99.9563 201.528C99.6632 200.852 99.5012 200.126 99.4788 199.388C99.4783 199.19 99.5 198.992 99.5436 198.799C99.5488 198.732 99.5647 198.666 99.5908 198.604Z" fill="#263238"/>
<path d="M105.792 198.074C105.828 198.074 105.751 198.357 105.792 198.864C105.864 199.578 106.053 200.275 106.352 200.927C106.831 201.903 107.207 202.927 107.472 203.981C107.653 205.339 107.309 206.716 106.512 207.83C105.757 209.039 104.861 210.035 104.265 211.078C103.979 211.564 103.757 212.085 103.605 212.629C103.481 213.102 103.445 213.593 103.499 214.079C103.56 214.788 103.857 215.456 104.342 215.977C104.539 216.15 104.746 216.311 104.961 216.461C104.961 216.461 104.89 216.461 104.767 216.396C104.582 216.312 104.411 216.201 104.26 216.066C103.715 215.546 103.37 214.851 103.287 214.103C103.215 213.59 103.239 213.068 103.358 212.564C103.504 211.994 103.728 211.446 104.024 210.937C104.613 209.858 105.515 208.844 106.252 207.671C107.011 206.618 107.346 205.317 107.189 204.028C106.944 202.99 106.596 201.979 106.152 201.01C105.859 200.333 105.697 199.607 105.674 198.87C105.674 198.672 105.696 198.474 105.739 198.28C105.757 198.139 105.781 198.068 105.792 198.074Z" fill="#263238"/>
<path d="M111.97 197.555C112.006 197.555 111.935 197.838 111.97 198.345C112.052 199.063 112.251 199.762 112.56 200.414C113.038 201.388 113.411 202.41 113.674 203.462C113.854 204.821 113.511 206.197 112.713 207.312C111.959 208.52 111.063 209.516 110.473 210.56C110.184 211.045 109.96 211.567 109.807 212.11C109.685 212.583 109.651 213.075 109.707 213.56C109.766 214.269 110.061 214.937 110.544 215.459C110.742 215.633 110.95 215.794 111.169 215.942C111.169 215.942 111.092 215.942 110.968 215.877C110.785 215.791 110.614 215.68 110.461 215.547C109.916 215.027 109.572 214.332 109.489 213.584C109.417 213.071 109.441 212.549 109.559 212.045C109.71 211.478 109.934 210.933 110.225 210.424C110.815 209.339 111.723 208.326 112.454 207.152C113.212 206.098 113.548 204.799 113.397 203.509C113.147 202.472 112.797 201.461 112.354 200.491C112.063 199.813 111.901 199.088 111.876 198.351C111.877 198.153 111.901 197.955 111.947 197.762C111.935 197.62 111.97 197.555 111.97 197.555Z" fill="#263238"/>
<path d="M25.9028 264.21C25.9028 264.21 17.9563 225.391 25.9028 203.821H34.7454C34.7454 203.821 41.4952 226.57 34.7454 264.21H25.9028Z" fill="#FF725E"/>
<g opacity="0.7">
<path d="M25.9028 264.21C25.9028 264.21 17.9563 225.391 25.9028 203.821H34.7454C34.7454 203.821 41.4952 226.57 34.7454 264.21H25.9028Z" fill="white"/>
</g>
<path d="M32.4168 183.672C33.8792 181.169 35.9654 179.089 38.472 177.633C40.9785 176.177 43.8197 175.396 46.7181 175.366C45.3498 178.101 43.2205 180.383 40.5861 181.938C37.9518 183.492 34.9245 184.252 31.8685 184.126" fill="#455A64"/>
<path d="M34.6039 167.491C32.5968 165.396 31.168 162.816 30.457 160.003C29.7461 157.19 29.7775 154.241 30.5481 151.444C32.8031 153.511 34.4125 156.185 35.1823 159.145C35.9521 162.105 35.8495 165.224 34.8869 168.127" fill="#455A64"/>
<path d="M26.6573 167.72C24.2833 166.762 22.2021 165.198 20.6215 163.184C19.041 161.17 18.0163 158.776 17.6497 156.242C20.2154 157.087 22.4783 158.663 24.1603 160.776C25.8423 162.89 26.87 165.449 27.1171 168.139" fill="#455A64"/>
<path d="M24.4821 150.484C24.0795 148.661 24.1621 146.765 24.7218 144.985C25.2814 143.205 26.2985 141.602 27.6713 140.338C28.2214 142.232 28.206 144.246 27.6268 146.131C27.0476 148.016 25.9299 149.691 24.4113 150.949" fill="#455A64"/>
<path d="M30.6188 198.822C30.8027 196.965 31.4705 195.189 32.5556 193.67C33.6407 192.152 35.1051 190.944 36.8027 190.169C36.7384 192.138 36.0997 194.045 34.9654 195.656C33.8311 197.267 32.2506 198.511 30.4184 199.235" fill="#455A64"/>
<path d="M20.9981 134.236C20.9981 134.236 22.5898 140.184 24.4467 149.952L25.1541 153.79C25.3958 155.122 25.6021 156.519 25.8379 157.964C26.3272 160.84 26.7281 163.941 27.1761 167.195C27.9837 173.721 28.6852 180.913 29.1156 188.488C29.5459 196.063 29.6049 203.296 29.5105 209.869C29.4221 213.159 29.3632 216.283 29.1922 219.201C29.1097 220.657 29.0625 222.072 28.9682 223.422C28.8739 224.772 28.7737 226.075 28.6793 227.313C27.9012 237.228 26.9698 243.306 26.9698 243.306C26.9698 243.306 26.9698 243.212 26.9698 243.023L27.0818 242.227C27.1643 241.484 27.2763 240.417 27.4237 239.044C27.5003 238.354 27.5888 237.588 27.6772 236.745C27.7656 235.902 27.8422 234.976 27.9307 234.009C28.0957 232.041 28.3315 229.806 28.4789 227.33C28.5614 226.085 28.6499 224.788 28.7442 223.44C28.8326 222.084 28.8739 220.675 28.9446 219.219C29.1097 216.301 29.1568 213.182 29.2394 209.899C29.316 203.332 29.2394 196.104 28.8208 188.535C28.4023 180.966 27.6949 173.798 26.9049 167.26C26.4687 164.006 26.0796 160.911 25.5962 158.028C25.3663 156.59 25.1659 155.193 24.9301 153.855C24.6943 152.517 24.4644 151.243 24.2463 150.017C23.8277 147.571 23.3502 145.372 22.9729 143.438C22.7725 142.471 22.5898 141.569 22.4247 140.744C22.2596 139.919 22.071 139.164 21.9177 138.486L21.2339 135.362C21.1573 135.014 21.1042 134.772 21.0571 134.548C21.0099 134.324 20.9981 134.236 20.9981 134.236Z" fill="#263238"/>
<path d="M40.5401 148.385C40.5314 148.458 40.5136 148.529 40.4871 148.597C40.4399 148.744 40.381 148.945 40.2984 149.187L39.5557 151.486L39.0074 153.148C38.8247 153.738 38.6242 154.421 38.4179 155.135C37.9994 156.567 37.4806 158.182 37.009 160.004C36.7673 160.912 36.5079 161.861 36.2426 162.851C35.9774 163.842 35.7475 164.879 35.4822 165.952C34.9398 168.092 34.4741 170.403 33.9613 172.832C33.0063 177.701 32.1279 183.089 31.4853 188.784C30.8428 194.478 30.5598 199.931 30.4301 204.895C30.4301 207.376 30.3535 209.734 30.4301 211.939C30.4301 213.042 30.4301 214.109 30.495 215.134C30.5598 216.16 30.5834 217.139 30.6247 218.082C30.6836 219.962 30.8428 221.654 30.9371 223.14C30.9961 223.883 31.0432 224.578 31.0904 225.215C31.1375 225.851 31.2142 226.429 31.2613 226.983C31.3616 228.015 31.4382 228.823 31.4912 229.389C31.4912 229.654 31.5266 229.86 31.5443 230.019C31.5495 230.09 31.5495 230.161 31.5443 230.231C31.5243 230.162 31.5105 230.091 31.503 230.019C31.503 229.866 31.4559 229.66 31.4264 229.4C31.3557 228.811 31.2613 228.027 31.1375 226.995L30.943 225.256C30.8841 224.619 30.8251 223.93 30.7603 223.187C30.6483 221.695 30.4773 220.004 30.4007 218.123C30.3535 217.186 30.3004 216.201 30.2533 215.176C30.2061 214.15 30.1943 213.083 30.1649 211.98C30.0941 209.77 30.1649 207.406 30.1649 204.906C30.2769 199.937 30.5834 194.472 31.1965 188.766C31.8096 183.059 32.7292 177.665 33.7019 172.79C34.2265 170.362 34.6981 168.074 35.2523 165.911C35.5234 164.838 35.7592 163.794 36.0304 162.804C36.3016 161.814 36.5669 160.871 36.8204 159.963C37.3037 158.147 37.8343 156.532 38.2705 155.105C38.4945 154.392 38.7068 153.732 38.8954 153.119C39.084 152.505 39.2963 151.94 39.4849 151.468C39.8327 150.489 40.0744 149.699 40.2866 149.181C40.381 148.933 40.4517 148.739 40.5047 148.591C40.5084 148.521 40.5203 148.452 40.5401 148.385Z" fill="#263238"/>
<path d="M39.255 152.776C37.3215 151.149 37.2036 148.119 38.1527 145.779C39.1018 143.438 40.888 141.558 42.3794 139.518C43.8708 137.478 45.1383 135.038 44.7964 132.538C44.6523 131.961 44.6104 131.362 44.6726 130.77C44.7964 130.18 45.38 129.632 45.9518 129.809C46.5236 129.986 46.6651 130.563 46.7712 131.082C47.1016 132.697 47.2009 134.35 47.0659 135.993C47.4527 135.037 48.0517 134.181 48.8176 133.491C49.5836 132.801 50.4964 132.293 51.4872 132.008C51.7002 132.969 51.6671 133.968 51.3909 134.913C51.1147 135.858 50.6044 136.718 49.9074 137.414C51.1866 136.883 52.5542 136.335 53.916 136.6C55.2777 136.865 56.4921 138.304 55.9792 139.595C55.3897 141.057 53.4031 141.086 51.8527 141.363C50.1179 141.68 48.5515 142.601 47.4314 143.963C46.0284 145.672 45.4684 147.907 44.3307 149.805C43.1929 151.703 41.0176 153.342 38.919 152.67" fill="#FF725E"/>
<path d="M22.6605 140.786C24.8004 139.453 25.3427 136.465 24.7296 134.018C24.1166 131.572 22.6192 129.455 21.4284 127.227C20.2376 124.999 19.3239 122.405 20.0136 119.976C20.2418 119.414 20.3676 118.815 20.385 118.208C20.3437 117.618 19.8486 116.982 19.2532 117.076C18.6578 117.17 18.4396 117.724 18.2628 118.255C17.7083 119.805 17.3788 121.427 17.2842 123.071C17.0364 122.069 16.5636 121.137 15.9017 120.346C15.2398 119.554 14.4062 118.924 13.4642 118.503C13.1183 119.425 13.0109 120.42 13.1521 121.395C13.2933 122.369 13.6784 123.293 14.2719 124.079C13.0929 123.372 11.7959 122.641 10.4165 122.712C9.03707 122.782 7.62816 124.038 7.95238 125.382C8.31787 126.915 10.3104 127.227 11.7901 127.74C13.4618 128.301 14.883 129.432 15.8046 130.935C16.9482 132.822 17.1958 135.115 18.0506 137.154C18.9054 139.194 20.833 141.134 23.0083 140.75" fill="#FF725E"/>
<path d="M20.1316 169.973C20.2205 170.09 20.2938 170.219 20.3497 170.356L20.9392 171.476C21.1868 171.965 21.4816 172.566 21.794 173.28C22.1064 173.993 22.4955 174.789 22.861 175.697C23.2265 176.605 23.645 177.589 24.04 178.674C24.435 179.758 24.8417 180.914 25.2603 182.14C26.0502 184.604 26.8225 187.351 27.4768 190.263C28.1312 193.176 28.5733 195.999 28.8916 198.569C29.0331 199.855 29.1805 201.081 29.2512 202.23C29.322 203.38 29.3986 204.447 29.4399 205.425C29.4811 206.404 29.487 207.288 29.4988 208.066C29.5106 208.845 29.4988 209.511 29.4988 210.059C29.4988 210.607 29.4399 210.984 29.4399 211.32C29.4399 211.656 29.4399 211.757 29.4045 211.757C29.3881 211.61 29.3881 211.461 29.4045 211.315C29.4045 211.002 29.4045 210.584 29.4045 210.059C29.4045 209.534 29.4045 208.845 29.3691 208.066C29.3337 207.288 29.3337 206.41 29.263 205.437C29.1923 204.464 29.151 203.392 29.039 202.248C28.927 201.104 28.8032 199.89 28.6558 198.605C28.3198 196.046 27.8541 193.24 27.2233 190.352C26.5925 187.463 25.8026 184.71 25.0304 182.246C24.6236 181.02 24.2463 179.853 23.8514 178.78C23.4564 177.707 23.0732 176.705 22.7077 175.797C22.3422 174.889 21.9944 174.081 21.6938 173.368C21.3931 172.655 21.1043 172.042 20.8862 171.547L20.3674 170.397C20.2755 170.263 20.1965 170.121 20.1316 169.973Z" fill="#263238"/>
<path d="M21.5936 175.649C22.6606 174.783 22.7726 173.132 22.2538 171.853C21.7351 170.574 20.8036 169.53 20.0078 168.404C19.212 167.278 18.5458 165.94 18.7522 164.584C18.8349 164.267 18.8628 163.938 18.8347 163.612C18.7699 163.287 18.4574 162.987 18.145 163.075C17.8326 163.164 17.75 163.482 17.6852 163.765C17.4917 164.641 17.4242 165.54 17.4847 166.435C17.2848 165.912 16.9687 165.442 16.5602 165.059C16.1517 164.676 15.6615 164.39 15.1267 164.225C15.004 164.745 15.0142 165.287 15.1564 165.802C15.2986 166.318 15.5681 166.789 15.9402 167.172C15.2745 166.806 14.517 166.64 13.7591 166.695C13.0222 166.824 12.3443 167.602 12.5801 168.304C12.8866 169.112 13.9713 169.141 14.8143 169.306C15.7553 169.499 16.5997 170.014 17.2018 170.762C17.9505 171.705 18.2393 172.926 18.8406 173.969C19.4419 175.013 20.6091 175.932 21.7881 175.578" fill="#FF725E"/>
</svg>
